<?xml version="1.0" encoding="utf-8"?>
<!-- Generator: Adobe Illustrator 19.0.0, SVG Export Plug-In . SVG Version: 6.00 Build 0)  -->
<svg version="1.1" xmlns="http://www.w3.org/2000/svg" xmlns:xlink="http://www.w3.org/1999/xlink" x="0px" y="0px" viewBox="0 0 399 233" style="enable-background:new 0 0 399 233;" xml:space="preserve">
  <g id="Layer_1">
  </g>
  <g id="Layer_2">
  </g>
  <g id="Layer_3">
    <g>
      <g>
        <path d="M115,85.8c0,0-1.4,10.9-11.6,6.2c-10.3-4.8,1.4-26.7,19.1-14.4c17.8,12.3,44.5,28,56.1,11.6c11.6-16.4-11.6-38.3-26-22.6
				c0,0-1.7,2.6-3.7,1.1c-2-1.5-7.9-1.5-7.9-1.5s6.2-8.5,15.3-6.8c0,0,2.9-0.3,1.2-1.8c-1.8-1.5-3.5-4.7-3.5-4.7s5-0.9,9.1,3.2
				c4.1,4.1,18.5,2.9,20.9,20c2.3,17-11.2,25.3-26.7,21.1c-15.6-4.1-33.2-18.5-37.9-20c-4.7-1.5-12.6-3.2-16.7,4.7
				C98.3,90.1,112.5,95.4,115,85.8z" fill="#b38739" />
        <path d="M182.8,86.5c0,0,0.9-13.2,6.6-16.3c0,0-0.9,2.2-0.9,4.9c0,0,2.6-6.6,9.3-8.4c0,0-0.9,1.8-0.9,7
				C196.9,79,190.3,84.2,182.8,86.5z" fill="#b38739" />
        <path d="M181.1,68.5c0,0-8.4-6.2-4.8-17.2c3.5-11,20.3-7.5,16.7,4.4c-2.2,5.7-9.3,4.9-9.7-1.8c0,0,0.6-1.4,1.5-0.3
				c0.9,1,0.1,4.9,4.2,5.2c4.1,0.2,5.7-10.8-0.1-12.3C183.1,45,171,52.1,181.1,68.5z" fill="#b38739" />
        <path d="M119.2,76.6c0,0-11.3-3.9-10-9.6c1-2.1,3.9-0.7,5,3C115.3,73.8,119.2,76.6,119.2,76.6z" fill="#b38739" />
        <path d="M132.3,84.6c0,0-5-4.4-3.5-9.7c1.2-2.3,2.9,0.3,2.6,2.9C131.1,80.5,132.3,84.6,132.3,84.6z" fill="#b38739" />
        <path d="M183.7,84.7l0.1-0.7c-8,1.5-13.2,11.5-23.3,8.7c-10-2.8-6.7-12.6-6.7-12.6s1.2-5.4,6.8-5.5c5.6-0.2,6,4.9,4.4,5.9
				c-0.6,0.2-1.2-0.6-1.2-0.6s-2-1.6-3.7,0.7c-1.7,2.3,0.7,5.2,3.8,4c3.1-1.3,4.6-4.5,2.4-9.2c-1.2-2.4-10.3-4.9-12.9,3.5
				c-2.6,8.4,0.4,14,9,15c6.5,0.4,8-1.9,12.6-4.8C180.8,84.9,183.7,84.7,183.7,84.7z" fill="#b38739" />
        <path d="M149.3,80.5c0,0,0.8,2.4,2.5,1.6c1.7-0.7,1-5.9-4.3-4.7c-5.3,1.2-13.2,13.4-23.5,11.2c-7.4-2-5.2-7.4-4.4-8
				c0.8-0.6,5-1.3,5.5,1.8c0.5,3.1-3.2,3.5-3.6,2c-0.4-1.5,0.8-2.1,1.4-1.6c0,0-0.3,0.4-0.5,0.3c-0.2-0.1-0.8,1.7,1,1.6
				c1.8-0.1,1.9-3.5-0.2-3.9c-2.1-0.4-4.9,2.4-2.3,5.4c2.6,3,8.4,2.5,11.7,0.6c3.4-1.9,7-4.5,8.3-5.6c1.3-1.2,5.2-4.6,8.1-4.5
				c2.9,0.1,4.6,1.5,4.5,3.5C153.2,82.4,150.3,83.9,149.3,80.5z" fill="#b38739" />
        <path d="M165.4,84.1c0,0,5.6-1.2,5.4-6.5c-0.2-5.3-3.9-7.3-6.4-8.6c-2.5-1.2-4.1-0.5-4-3c0.1-1.8,2.4-2,2.7-1.2
				c0,0-0.3-1.6-2.1-2c-1.9-0.3-4,3.7-1.6,5.4c0,0-1.1,0.3-1.5-0.3c0,0-0.2,1.7,1.6,2.5c0,0-1.1,0.4-0.5,0.9
				c0.6,0.5,0.7,1.1,4.7,0.9C167.6,72,172.5,79.7,165.4,84.1z" fill="#b38739" />
      </g>
      <g>
        <path d="M284,85.8c0,0,1.4,10.9,11.6,6.2c10.3-4.8-1.4-26.7-19.1-14.4c-17.8,12.3-44.5,28-56.1,11.6
				c-11.6-16.4,11.6-38.3,26-22.6c0,0,1.7,2.6,3.7,1.1c2.1-1.5,7.9-1.5,7.9-1.5s-6.2-8.5-15.3-6.8c0,0-2.9-0.3-1.2-1.8
				c1.8-1.5,3.5-4.7,3.5-4.7s-5-0.9-9.1,3.2c-4.1,4.1-18.5,2.9-20.9,20c-2.3,17,11.2,25.3,26.7,21.1c15.6-4.1,33.2-18.5,37.9-20
				c4.7-1.5,12.6-3.2,16.7,4.7C300.7,90.1,286.5,95.4,284,85.8z" fill="#b38739" />
        <path d="M216.2,86.5c0,0-0.9-13.2-6.6-16.3c0,0,0.9,2.2,0.9,4.9c0,0-2.7-6.6-9.3-8.4c0,0,0.9,1.8,0.9,7
				C202.1,79,208.7,84.2,216.2,86.5z" fill="#b38739" />
        <path d="M217.9,68.5c0,0,8.4-6.2,4.8-17.2c-3.5-11-20.3-7.5-16.7,4.4c2.2,5.7,9.3,4.9,9.7-1.8c0,0-0.6-1.4-1.5-0.3
				c-0.9,1-0.1,4.9-4.2,5.2c-4.1,0.2-5.7-10.8,0.1-12.3C215.9,45,228,52.1,217.9,68.5z" fill="#b38739" />
        <path d="M279.8,76.6c0,0,11.4-3.9,10-9.6c-1-2.1-3.9-0.7-5,3C283.7,73.8,279.8,76.6,279.8,76.6z" fill="#b38739" />
        <path d="M266.7,84.6c0,0,5-4.4,3.5-9.7c-1.2-2.3-2.9,0.3-2.6,2.9C267.9,80.5,266.7,84.6,266.7,84.6z" fill="#b38739" />
        <path d="M215.3,84.7l-0.1-0.7c8,1.5,13.2,11.5,23.2,8.7c10.1-2.8,6.7-12.6,6.7-12.6s-1.2-5.4-6.8-5.5c-5.6-0.2-6,4.9-4.4,5.9
				c0.6,0.2,1.2-0.6,1.2-0.6s2-1.6,3.7,0.7c1.7,2.3-0.7,5.2-3.8,4c-3.1-1.3-4.6-4.5-2.4-9.2c1.2-2.4,10.3-4.9,12.9,3.5
				c2.6,8.4-0.4,14-9.1,15c-6.5,0.4-8-1.9-12.6-4.8C218.2,84.9,215.3,84.7,215.3,84.7z" fill="#b38739" />
        <path d="M249.7,80.5c0,0-0.8,2.4-2.5,1.6c-1.7-0.7-1-5.9,4.3-4.7c5.3,1.2,13.2,13.4,23.5,11.2c7.4-2,5.2-7.4,4.4-8
				c-0.8-0.6-5-1.3-5.5,1.8c-0.5,3.1,3.2,3.5,3.6,2c0.4-1.5-0.8-2.1-1.4-1.6c0,0,0.3,0.4,0.5,0.3c0.3-0.1,0.8,1.7-1,1.6
				c-1.8-0.1-1.9-3.5,0.3-3.9c2.1-0.4,4.9,2.4,2.3,5.4c-2.6,3-8.4,2.5-11.8,0.6c-3.4-1.9-7-4.5-8.3-5.6c-1.3-1.2-5.2-4.6-8.1-4.5
				c-2.9,0.1-4.6,1.5-4.5,3.5C245.8,82.4,248.7,83.9,249.7,80.5z" fill="#b38739" />
        <path d="M233.6,84.1c0,0-5.6-1.2-5.4-6.5c0.2-5.3,3.9-7.3,6.4-8.6c2.5-1.2,4.1-0.5,4-3c-0.1-1.8-2.4-2-2.7-1.2c0,0,0.3-1.6,2.1-2
				c1.9-0.3,4,3.7,1.6,5.4c0,0,1.1,0.3,1.5-0.3c0,0,0.2,1.7-1.6,2.5c0,0,1.1,0.4,0.5,0.9c-0.6,0.5-0.7,1.1-4.6,0.9
				C231.5,72,226.5,79.7,233.6,84.1z" fill="#b38739" />
      </g>
    </g>
  </g>
  <g id="Layer_4">
  </g>
  <g id="Layer_5">
  </g>
  <g id="Layer_6">
  </g>
  <g id="Layer_7">
  </g>

</svg>