<svg id="visual" viewBox="0 0 960 50" width="960" height="50" xmlns="http://www.w3.org/2000/svg" xmlns:xlink="http://www.w3.org/1999/xlink" version="1.1"><path d="M0 26L22.8 26.8C45.7 27.7 91.3 29.3 137 30.3C182.7 31.3 228.3 31.7 274 29.7C319.7 27.7 365.3 23.3 411.2 20.2C457 17 503 15 548.8 16.3C594.7 17.7 640.3 22.3 686 24.5C731.7 26.7 777.3 26.3 823 23.8C868.7 21.3 914.3 16.7 937.2 14.3L960 12L960 51L937.2 51C914.3 51 868.7 51 823 51C777.3 51 731.7 51 686 51C640.3 51 594.7 51 548.8 51C503 51 457 51 411.2 51C365.3 51 319.7 51 274 51C228.3 51 182.7 51 137 51C91.3 51 45.7 51 22.8 51L0 51Z" fill="#f9f5ea" stroke-linecap="round" stroke-linejoin="miter"></path></svg>