<svg id="visual" viewBox="0 0 960 100" width="960" height="100" xmlns="http://www.w3.org/2000/svg" xmlns:xlink="http://www.w3.org/1999/xlink" version="1.1"><path d="M0 50L22.8 50.7C45.7 51.3 91.3 52.7 137 57C182.7 61.3 228.3 68.7 274 72.7C319.7 76.7 365.3 77.3 411.2 76.3C457 75.3 503 72.7 548.8 68.2C594.7 63.7 640.3 57.3 686 55.7C731.7 54 777.3 57 823 59.7C868.7 62.3 914.3 64.7 937.2 65.8L960 67L960 101L937.2 101C914.3 101 868.7 101 823 101C777.3 101 731.7 101 686 101C640.3 101 594.7 101 548.8 101C503 101 457 101 411.2 101C365.3 101 319.7 101 274 101C228.3 101 182.7 101 137 101C91.3 101 45.7 101 22.8 101L0 101Z" fill="#b38739" stroke-linecap="round" stroke-linejoin="miter"></path></svg>