<svg id="visual" viewBox="0 0 960 50" width="960" height="50" xmlns="http://www.w3.org/2000/svg" xmlns:xlink="http://www.w3.org/1999/xlink" version="1.1"><path d="M0 23L16 24.7C32 26.3 64 29.7 96 27.8C128 26 160 19 192 16.7C224 14.3 256 16.7 288 18.3C320 20 352 21 384 23.5C416 26 448 30 480 29.2C512 28.3 544 22.7 576 23C608 23.3 640 29.7 672 30.2C704 30.7 736 25.3 768 24.7C800 24 832 28 864 29.3C896 30.7 928 29.3 944 28.7L960 28L960 51L944 51C928 51 896 51 864 51C832 51 800 51 768 51C736 51 704 51 672 51C640 51 608 51 576 51C544 51 512 51 480 51C448 51 416 51 384 51C352 51 320 51 288 51C256 51 224 51 192 51C160 51 128 51 96 51C64 51 32 51 16 51L0 51Z" fill="#ffffff" stroke-linecap="round" stroke-linejoin="miter"></path></svg>