<svg xmlns="http://www.w3.org/2000/svg" xmlns:xlink="http://www.w3.org/1999/xlink" width="590" zoomAndPan="magnify" viewBox="0 0 442.5 36.000001" height="48" preserveAspectRatio="xMidYMid meet" version="1.0"><defs><clipPath id="a826f50369"><path d="M 213 1.757812 L 225 1.757812 L 225 15 L 213 15 Z M 213 1.757812 " clip-rule="nonzero"/></clipPath><clipPath id="c235fd83cb"><path d="M 14.347656 11 L 175 11 L 175 25 L 14.347656 25 Z M 14.347656 11 " clip-rule="nonzero"/></clipPath><clipPath id="558e43e997"><path d="M 264 11 L 423.726562 11 L 423.726562 25 L 264 25 Z M 264 11 " clip-rule="nonzero"/></clipPath></defs><g clip-path="url(#a826f50369)"><path fill="#b38739" d="M 224.769531 6.183594 C 223.976562 5.074219 223.015625 4.640625 222.097656 4.902344 C 221.988281 4.613281 221.867188 4.328125 221.730469 4.050781 C 221.054688 2.683594 220.1875 1.972656 219.304688 1.867188 L 219.109375 1.898438 L 218.917969 1.867188 C 218.035156 1.972656 217.164062 2.683594 216.488281 4.050781 C 216.355469 4.328125 216.230469 4.613281 216.125 4.902344 C 215.203125 4.640625 214.246094 5.074219 213.449219 6.183594 C 215.90625 7.242188 217.988281 10.503906 219.109375 14.890625 C 220.234375 10.503906 222.296875 7.242188 224.769531 6.183594 Z M 224.769531 6.183594 " fill-opacity="1" fill-rule="nonzero"/></g><path fill="#b38739" d="M 217.511719 20.933594 C 217.308594 20.097656 217.011719 19.300781 216.625 18.535156 C 216.414062 18.109375 216.183594 17.699219 215.925781 17.304688 C 215.65625 16.890625 215.363281 16.5 215.039062 16.125 C 214.875 15.9375 214.699219 15.75 214.515625 15.570312 C 214.421875 15.476562 214.328125 15.386719 214.226562 15.300781 C 214.121094 15.214844 214.125 15.210938 214.074219 15.171875 L 213.917969 15.046875 C 213.496094 14.71875 213.046875 14.425781 212.578125 14.167969 C 212.085938 13.898438 211.574219 13.683594 211.039062 13.519531 C 210.484375 13.351562 209.921875 13.246094 209.34375 13.207031 C 208.753906 13.167969 208.167969 13.191406 207.585938 13.28125 L 207.367188 13.3125 L 207.148438 13.351562 C 207.003906 13.382812 206.859375 13.410156 206.71875 13.445312 C 206.425781 13.515625 206.148438 13.601562 205.867188 13.691406 C 205.304688 13.882812 204.757812 14.105469 204.226562 14.367188 C 203.699219 14.625 203.1875 14.914062 202.691406 15.214844 C 201.714844 15.828125 200.769531 16.496094 199.867188 17.214844 C 198.96875 17.921875 198.109375 18.648438 197.273438 19.363281 C 196.4375 20.082031 195.636719 20.78125 194.816406 21.414062 L 194.519531 21.652344 L 194.210938 21.886719 L 193.910156 22.121094 L 193.605469 22.351562 C 193.199219 22.652344 192.796875 22.941406 192.402344 23.210938 C 191.652344 23.730469 190.867188 24.183594 190.046875 24.574219 C 189.65625 24.757812 189.257812 24.914062 188.847656 25.046875 C 188.425781 25.179688 188 25.277344 187.566406 25.339844 C 187.121094 25.40625 186.675781 25.425781 186.230469 25.402344 C 186.171875 25.402344 186.117188 25.402344 186.0625 25.402344 L 185.890625 25.402344 L 185.550781 25.355469 L 185.382812 25.328125 L 185.210938 25.328125 L 184.859375 25.246094 C 184.386719 25.113281 183.929688 24.945312 183.480469 24.742188 L 183.308594 24.667969 L 183.222656 24.632812 L 183.140625 24.589844 L 182.804688 24.421875 L 182.472656 24.238281 L 182.152344 24.042969 C 181.273438 23.484375 180.488281 22.816406 179.796875 22.039062 C 179.085938 21.242188 178.488281 20.367188 178.003906 19.417969 C 177.511719 18.46875 177.152344 17.46875 176.929688 16.421875 L 176.890625 16.226562 C 176.890625 16.164062 176.863281 16.097656 176.855469 16.03125 L 176.792969 15.621094 C 176.792969 15.492188 176.765625 15.359375 176.753906 15.210938 C 176.75 15.179688 176.75 15.148438 176.753906 15.113281 L 176.753906 14.828125 C 176.730469 14.316406 176.757812 13.808594 176.835938 13.304688 C 176.988281 12.308594 177.320312 11.375 177.839844 10.511719 C 178.085938 10.09375 178.375 9.707031 178.699219 9.347656 C 179.015625 9.003906 179.363281 8.691406 179.742188 8.414062 C 180.105469 8.144531 180.492188 7.914062 180.902344 7.722656 C 181.300781 7.546875 181.707031 7.410156 182.128906 7.3125 L 182.285156 7.28125 L 182.441406 7.28125 L 182.75 7.226562 L 184.246094 7.226562 L 184.535156 7.25 C 185.238281 7.316406 185.902344 7.527344 186.515625 7.878906 C 186.648438 7.957031 186.777344 8.050781 186.898438 8.148438 C 187.011719 8.238281 187.121094 8.339844 187.222656 8.445312 C 187.40625 8.644531 187.558594 8.867188 187.671875 9.113281 C 187.773438 9.332031 187.847656 9.554688 187.890625 9.789062 C 187.890625 9.898438 187.925781 10.003906 187.929688 10.101562 L 187.929688 10.519531 C 187.929688 10.5625 187.929688 10.605469 187.929688 10.644531 C 187.929688 10.6875 187.90625 10.796875 187.890625 10.867188 L 187.851562 11.054688 L 187.804688 11.210938 L 187.785156 11.277344 L 187.765625 11.328125 L 187.734375 11.414062 L 187.703125 11.484375 L 187.738281 11.421875 L 187.773438 11.335938 L 187.800781 11.28125 L 187.800781 11.21875 C 187.824219 11.175781 187.839844 11.121094 187.859375 11.066406 L 187.917969 10.878906 C 187.917969 10.808594 187.949219 10.734375 187.96875 10.652344 C 187.992188 10.574219 187.96875 10.574219 187.96875 10.527344 L 187.96875 10.054688 C 187.976562 9.949219 187.976562 9.839844 187.96875 9.734375 C 187.902344 9.183594 187.695312 8.691406 187.351562 8.257812 C 187.25 8.132812 187.140625 8.019531 187.023438 7.910156 C 186.902344 7.796875 186.773438 7.695312 186.636719 7.597656 C 186 7.175781 185.308594 6.902344 184.554688 6.78125 L 184.253906 6.738281 L 184.101562 6.714844 C 184.050781 6.714844 183.996094 6.714844 183.945312 6.714844 L 183.628906 6.6875 L 182.8125 6.6875 C 182.761719 6.6875 182.703125 6.6875 182.652344 6.6875 L 182.316406 6.71875 L 182.144531 6.71875 L 181.976562 6.746094 C 181.503906 6.832031 181.046875 6.957031 180.601562 7.128906 C 179.648438 7.523438 178.808594 8.089844 178.085938 8.828125 C 177.699219 9.203125 177.351562 9.613281 177.046875 10.054688 C 176.058594 11.519531 175.5625 13.132812 175.5625 14.898438 L 175.5625 15.230469 C 175.558594 15.265625 175.558594 15.300781 175.5625 15.339844 C 175.5625 15.484375 175.5625 15.628906 175.589844 15.777344 C 175.617188 15.925781 175.617188 16.066406 175.636719 16.210938 C 175.640625 16.285156 175.648438 16.355469 175.664062 16.429688 L 175.695312 16.648438 C 175.882812 17.824219 176.222656 18.953125 176.714844 20.035156 C 177.214844 21.125 177.84375 22.132812 178.605469 23.058594 C 179.367188 23.980469 180.242188 24.777344 181.234375 25.445312 C 181.359375 25.527344 181.480469 25.609375 181.605469 25.6875 L 181.988281 25.914062 C 182.113281 25.988281 182.246094 26.050781 182.375 26.121094 C 182.40625 26.140625 182.4375 26.15625 182.46875 26.171875 L 182.574219 26.21875 L 182.769531 26.316406 C 183.300781 26.558594 183.84375 26.761719 184.40625 26.921875 L 184.816406 27.03125 L 184.921875 27.054688 L 185.03125 27.054688 L 185.242188 27.101562 L 185.675781 27.167969 L 185.890625 27.191406 L 186.105469 27.191406 C 186.675781 27.230469 187.242188 27.214844 187.804688 27.140625 C 188.34375 27.070312 188.871094 26.957031 189.390625 26.792969 C 189.878906 26.640625 190.355469 26.457031 190.816406 26.242188 C 191.734375 25.808594 192.605469 25.296875 193.433594 24.707031 C 193.84375 24.410156 194.273438 24.097656 194.6875 23.777344 L 194.996094 23.53125 L 195.308594 23.285156 L 195.621094 23.035156 L 195.929688 22.773438 C 196.75 22.074219 197.570312 21.339844 198.386719 20.601562 C 199.207031 19.863281 200.027344 19.121094 200.847656 18.402344 C 201.679688 17.683594 202.546875 17.011719 203.453125 16.386719 C 203.90625 16.085938 204.367188 15.796875 204.839844 15.539062 C 205.304688 15.28125 205.785156 15.054688 206.28125 14.859375 C 206.527344 14.769531 206.773438 14.679688 207.019531 14.609375 C 207.144531 14.570312 207.269531 14.539062 207.394531 14.503906 L 207.582031 14.460938 C 207.644531 14.460938 207.710938 14.429688 207.769531 14.421875 C 208.269531 14.320312 208.773438 14.273438 209.28125 14.28125 C 210.289062 14.304688 211.242188 14.535156 212.148438 14.96875 C 212.589844 15.179688 213.007812 15.425781 213.410156 15.703125 C 213.464844 15.738281 213.507812 15.773438 213.558594 15.804688 L 213.96875 16.132812 C 214.144531 16.289062 214.316406 16.449219 214.480469 16.617188 C 214.796875 16.949219 215.09375 17.296875 215.367188 17.664062 C 215.632812 18.023438 215.875 18.390625 216.097656 18.773438 C 216.515625 19.480469 216.847656 20.226562 217.085938 21.011719 C 217.195312 21.363281 217.28125 21.71875 217.335938 22.085938 C 217.367188 22.261719 217.382812 22.433594 217.398438 22.601562 C 217.398438 22.683594 217.398438 22.769531 217.398438 22.851562 L 217.398438 23.09375 C 217.398438 23.683594 217.285156 24.246094 217.054688 24.785156 C 216.957031 25.007812 216.839844 25.214844 216.703125 25.410156 L 216.65625 25.476562 L 216.609375 25.539062 L 216.511719 25.660156 L 216.410156 25.769531 L 216.316406 25.871094 C 216.285156 25.90625 216.253906 25.933594 216.222656 25.964844 L 216.128906 26.046875 L 215.957031 26.195312 L 215.800781 26.316406 L 215.671875 26.40625 L 215.613281 26.445312 L 215.5625 26.472656 L 215.484375 26.523438 L 215.425781 26.5625 L 215.492188 26.527344 L 215.574219 26.488281 L 215.621094 26.457031 L 215.683594 26.421875 L 215.820312 26.339844 L 215.984375 26.234375 L 216.171875 26.097656 L 216.269531 26.015625 C 216.304688 25.988281 216.339844 25.960938 216.371094 25.929688 L 216.476562 25.832031 L 216.582031 25.726562 L 216.691406 25.609375 L 216.746094 25.546875 C 216.761719 25.523438 216.78125 25.503906 216.800781 25.484375 C 216.957031 25.289062 217.09375 25.082031 217.210938 24.859375 C 217.492188 24.328125 217.65625 23.761719 217.710938 23.160156 L 217.710938 23.035156 C 217.710938 22.988281 217.710938 22.949219 217.710938 22.902344 C 217.710938 22.859375 217.710938 22.726562 217.710938 22.640625 C 217.710938 22.460938 217.710938 22.28125 217.679688 22.097656 C 217.652344 21.703125 217.597656 21.316406 217.511719 20.933594 Z M 217.511719 20.933594 " fill-opacity="1" fill-rule="nonzero"/><path fill="#b38739" d="M 178.894531 23.902344 L 178.632812 23.734375 L 178.3125 23.542969 C 178.085938 23.402344 177.820312 23.242188 177.523438 23.078125 C 177.375 22.992188 177.21875 22.910156 177.054688 22.820312 L 176.800781 22.691406 L 176.671875 22.625 L 176.535156 22.554688 L 176.257812 22.421875 L 175.96875 22.289062 L 175.820312 22.21875 L 175.667969 22.152344 L 175.511719 22.089844 L 175.351562 22.023438 L 175.027344 21.890625 L 174.691406 21.769531 C 174.578125 21.722656 174.464844 21.6875 174.34375 21.648438 L 174.164062 21.589844 L 173.984375 21.535156 C 173.476562 21.378906 172.964844 21.257812 172.441406 21.167969 C 171.289062 20.964844 170.132812 20.945312 168.976562 21.105469 C 168.363281 21.191406 167.765625 21.339844 167.183594 21.546875 C 166.585938 21.757812 166.023438 22.03125 165.492188 22.367188 C 164.949219 22.710938 164.460938 23.121094 164.027344 23.59375 L 163.953125 23.683594 L 163.875 23.78125 L 163.800781 23.875 C 163.773438 23.902344 163.746094 23.933594 163.722656 23.96875 C 163.675781 24.035156 163.628906 24.09375 163.578125 24.160156 L 163.449219 24.359375 C 163.277344 24.632812 163.128906 24.914062 163.003906 25.207031 C 162.882812 25.507812 162.789062 25.816406 162.722656 26.132812 C 162.691406 26.292969 162.667969 26.449219 162.652344 26.609375 C 162.636719 26.765625 162.628906 26.921875 162.628906 27.078125 C 162.636719 27.964844 162.851562 28.804688 163.265625 29.589844 C 163.546875 30.128906 163.90625 30.605469 164.34375 31.023438 L 164.425781 31.105469 L 164.515625 31.183594 L 164.691406 31.339844 C 164.816406 31.4375 164.941406 31.535156 165.074219 31.621094 C 165.601562 31.972656 166.164062 32.246094 166.765625 32.441406 C 167.375 32.644531 168.003906 32.757812 168.644531 32.789062 C 168.976562 32.800781 169.304688 32.789062 169.632812 32.75 C 169.96875 32.703125 170.300781 32.625 170.621094 32.515625 C 170.785156 32.457031 170.945312 32.386719 171.097656 32.308594 C 171.253906 32.226562 171.40625 32.136719 171.550781 32.035156 C 171.839844 31.828125 172.09375 31.585938 172.304688 31.300781 C 172.511719 31.027344 172.675781 30.726562 172.792969 30.40625 C 172.847656 30.253906 172.894531 30.097656 172.933594 29.9375 L 172.957031 29.820312 C 172.96875 29.78125 172.976562 29.738281 172.980469 29.699219 C 172.980469 29.617188 173.007812 29.53125 173.015625 29.449219 C 173.027344 29.285156 173.027344 29.121094 173.015625 28.960938 C 173.015625 28.878906 173.015625 28.800781 172.992188 28.71875 C 172.972656 28.636719 172.992188 28.640625 172.992188 28.605469 C 172.992188 28.566406 172.992188 28.527344 172.992188 28.484375 C 172.9375 28.183594 172.84375 27.894531 172.71875 27.617188 L 172.675781 27.515625 L 172.625 27.417969 C 172.59375 27.351562 172.554688 27.289062 172.519531 27.222656 L 172.40625 27.039062 L 172.285156 26.863281 C 172.121094 26.636719 171.9375 26.429688 171.726562 26.242188 C 171.53125 26.058594 171.316406 25.902344 171.085938 25.765625 C 170.863281 25.636719 170.632812 25.53125 170.390625 25.449219 C 170.15625 25.382812 169.917969 25.335938 169.675781 25.320312 L 169.078125 25.320312 L 168.996094 25.339844 L 168.839844 25.339844 L 168.691406 25.394531 L 168.617188 25.417969 L 168.546875 25.449219 L 168.40625 25.515625 C 168.238281 25.605469 168.085938 25.710938 167.941406 25.835938 C 167.695312 26.046875 167.5 26.292969 167.355469 26.582031 C 167.296875 26.695312 167.253906 26.816406 167.214844 26.941406 C 167.1875 27.042969 167.167969 27.148438 167.15625 27.257812 C 167.136719 27.402344 167.136719 27.546875 167.15625 27.695312 C 167.164062 27.730469 167.167969 27.769531 167.179688 27.804688 L 167.179688 27.84375 L 167.179688 27.800781 C 167.179688 27.777344 167.179688 27.738281 167.179688 27.691406 C 167.175781 27.550781 167.1875 27.414062 167.21875 27.28125 C 167.242188 27.183594 167.273438 27.085938 167.3125 26.996094 C 167.359375 26.882812 167.417969 26.777344 167.484375 26.679688 C 167.652344 26.4375 167.855469 26.238281 168.101562 26.078125 C 168.238281 25.988281 168.382812 25.910156 168.539062 25.851562 L 168.660156 25.8125 L 168.789062 25.8125 L 168.914062 25.78125 L 169.050781 25.78125 C 169.140625 25.773438 169.230469 25.773438 169.320312 25.78125 L 169.601562 25.78125 C 169.796875 25.820312 169.988281 25.878906 170.167969 25.960938 C 170.359375 26.050781 170.539062 26.15625 170.703125 26.28125 C 170.878906 26.414062 171.035156 26.5625 171.179688 26.726562 C 171.335938 26.898438 171.472656 27.082031 171.589844 27.28125 L 171.671875 27.429688 L 171.746094 27.589844 L 171.808594 27.746094 L 171.839844 27.828125 L 171.863281 27.910156 C 171.9375 28.132812 171.984375 28.359375 172.003906 28.589844 C 172.003906 28.621094 172.003906 28.648438 172.003906 28.675781 C 172.003906 28.707031 172.003906 28.734375 172.003906 28.761719 C 172.003906 28.792969 172.003906 28.878906 172.003906 28.929688 C 171.996094 29.042969 171.984375 29.15625 171.960938 29.265625 C 171.960938 29.320312 171.9375 29.375 171.921875 29.425781 C 171.90625 29.480469 171.921875 29.476562 171.894531 29.503906 L 171.871094 29.589844 C 171.832031 29.703125 171.785156 29.8125 171.738281 29.914062 C 171.6875 30.015625 171.628906 30.113281 171.566406 30.210938 C 171.5 30.300781 171.433594 30.386719 171.359375 30.472656 C 171.046875 30.804688 170.664062 31.023438 170.222656 31.128906 C 169.75 31.242188 169.273438 31.265625 168.792969 31.199219 C 168.296875 31.140625 167.820312 31.015625 167.359375 30.832031 C 166.917969 30.65625 166.507812 30.425781 166.128906 30.144531 C 165.777344 29.910156 165.46875 29.632812 165.199219 29.304688 C 164.964844 28.96875 164.777344 28.609375 164.644531 28.222656 C 164.511719 27.851562 164.441406 27.46875 164.429688 27.078125 C 164.429688 26.976562 164.429688 26.878906 164.429688 26.777344 C 164.429688 26.675781 164.429688 26.578125 164.464844 26.476562 C 164.5 26.273438 164.550781 26.070312 164.625 25.871094 C 164.984375 24.960938 165.5625 24.222656 166.359375 23.652344 C 166.777344 23.339844 167.222656 23.074219 167.699219 22.859375 C 168.1875 22.640625 168.691406 22.46875 169.210938 22.34375 C 170.238281 22.097656 171.277344 22.011719 172.332031 22.078125 C 172.828125 22.109375 173.320312 22.171875 173.808594 22.265625 L 174.160156 22.328125 L 174.503906 22.40625 L 174.839844 22.484375 L 175.164062 22.570312 L 175.484375 22.664062 L 175.636719 22.710938 L 175.789062 22.753906 L 176.085938 22.855469 L 176.371094 22.953125 L 176.511719 22.996094 L 176.648438 23.046875 L 176.929688 23.160156 L 177.421875 23.355469 C 177.730469 23.480469 178.011719 23.597656 178.238281 23.707031 L 178.578125 23.855469 L 178.863281 23.988281 L 179.273438 24.171875 L 179.40625 24.238281 L 179.285156 24.15625 Z M 178.894531 23.902344 " fill-opacity="1" fill-rule="nonzero"/><path fill="#b38739" d="M 173.179688 15.214844 L 173.300781 15.523438 C 173.34375 15.625 173.386719 15.722656 173.433594 15.820312 C 173.476562 15.914062 173.515625 16.011719 173.558594 16.101562 L 173.699219 16.363281 L 173.757812 16.488281 L 173.828125 16.609375 L 173.960938 16.835938 L 174.082031 17.042969 L 174.207031 17.226562 L 174.320312 17.394531 L 174.371094 17.472656 C 174.386719 17.496094 174.402344 17.519531 174.421875 17.542969 L 174.59375 17.773438 L 174.738281 17.964844 L 174.644531 17.742188 C 174.617188 17.667969 174.578125 17.582031 174.535156 17.480469 C 174.535156 17.457031 174.535156 17.433594 174.5 17.402344 L 174.46875 17.316406 L 174.398438 17.132812 C 174.378906 17.066406 174.347656 16.996094 174.324219 16.929688 L 174.25 16.703125 C 174.226562 16.625 174.203125 16.542969 174.171875 16.460938 L 174.136719 16.335938 L 174.105469 16.199219 L 174.03125 15.925781 C 174.003906 15.832031 173.984375 15.738281 173.964844 15.636719 C 173.945312 15.539062 173.917969 15.441406 173.898438 15.339844 C 173.878906 15.238281 173.863281 15.132812 173.84375 15.027344 C 173.699219 14.144531 173.65625 13.253906 173.714844 12.363281 C 173.785156 11.53125 173.921875 10.710938 174.125 9.90625 C 174.3125 9.097656 174.566406 8.3125 174.882812 7.550781 C 175.234375 6.726562 175.675781 5.949219 176.207031 5.226562 C 176.269531 5.140625 176.335938 5.058594 176.398438 4.976562 C 176.457031 4.894531 176.523438 4.820312 176.589844 4.742188 C 176.65625 4.664062 176.710938 4.585938 176.777344 4.511719 L 176.964844 4.300781 L 177.144531 4.105469 L 177.328125 3.925781 L 177.496094 3.757812 L 177.652344 3.609375 L 177.796875 3.476562 L 177.867188 3.414062 C 177.886719 3.390625 177.910156 3.375 177.933594 3.355469 L 178.15625 3.175781 L 178.34375 3.019531 L 178.125 3.128906 L 177.867188 3.25 L 177.789062 3.289062 L 177.710938 3.335938 L 177.535156 3.433594 L 177.339844 3.542969 L 177.132812 3.675781 L 176.914062 3.816406 L 176.796875 3.894531 L 176.683594 3.976562 L 176.445312 4.148438 L 176.203125 4.339844 C 176.121094 4.40625 176.035156 4.46875 175.953125 4.542969 L 175.703125 4.765625 C 174.980469 5.425781 174.363281 6.175781 173.855469 7.011719 C 173.367188 7.820312 173.011719 8.675781 172.78125 9.589844 C 172.574219 10.507812 172.503906 11.4375 172.570312 12.375 C 172.636719 13.351562 172.839844 14.296875 173.179688 15.214844 Z M 173.179688 15.214844 " fill-opacity="1" fill-rule="nonzero"/><g clip-path="url(#c235fd83cb)"><path fill="#b38739" d="M 165.226562 16.699219 L 165.511719 16.726562 L 165.792969 16.769531 C 165.984375 16.796875 166.171875 16.820312 166.351562 16.859375 C 166.53125 16.894531 166.71875 16.929688 166.894531 16.972656 L 167.164062 17.035156 L 167.292969 17.0625 L 167.421875 17.101562 L 167.679688 17.167969 L 167.804688 17.203125 L 167.933594 17.238281 L 168.183594 17.316406 C 168.265625 17.34375 168.34375 17.363281 168.421875 17.390625 L 168.898438 17.550781 L 169.351562 17.714844 C 169.949219 17.941406 170.496094 18.164062 170.992188 18.382812 C 171.488281 18.597656 171.933594 18.792969 172.316406 18.980469 L 173.3125 19.441406 L 174.15625 19.851562 L 173.335938 19.40625 L 172.371094 18.882812 C 171.996094 18.679688 171.550781 18.472656 171.082031 18.203125 C 170.609375 17.929688 170.0625 17.699219 169.472656 17.4375 L 169.015625 17.242188 L 168.550781 17.019531 C 168.472656 16.984375 168.386719 16.960938 168.304688 16.929688 L 168.058594 16.839844 L 167.933594 16.792969 L 167.804688 16.746094 L 167.542969 16.660156 L 167.410156 16.621094 L 167.28125 16.582031 L 167.011719 16.503906 C 166.832031 16.445312 166.644531 16.402344 166.457031 16.355469 C 166.269531 16.304688 166.078125 16.269531 165.882812 16.226562 C 165.785156 16.226562 165.6875 16.1875 165.589844 16.175781 L 165.289062 16.125 C 163.988281 15.941406 162.707031 16.027344 161.441406 16.378906 C 160.996094 16.503906 160.5625 16.660156 160.140625 16.84375 C 159.71875 17.023438 159.308594 17.226562 158.910156 17.453125 C 158.5 17.675781 158.089844 17.921875 157.71875 18.183594 L 157.433594 18.386719 L 157.144531 18.589844 L 156.867188 18.800781 L 156.589844 19.007812 C 156.21875 19.285156 155.855469 19.574219 155.492188 19.851562 C 155.125 20.128906 154.765625 20.414062 154.402344 20.671875 C 154.035156 20.929688 153.667969 21.191406 153.296875 21.433594 C 152.929688 21.667969 152.550781 21.882812 152.160156 22.074219 L 151.871094 22.214844 L 151.578125 22.34375 L 151.507812 22.375 L 151.433594 22.402344 L 151.28125 22.464844 L 150.980469 22.574219 C 150.191406 22.863281 149.378906 23.058594 148.546875 23.160156 C 147.027344 23.375 145.582031 23.144531 144.207031 22.464844 C 143.902344 22.316406 143.617188 22.136719 143.347656 21.933594 C 143.066406 21.710938 142.808594 21.464844 142.570312 21.195312 L 142.394531 20.984375 L 142.226562 20.761719 C 142.199219 20.726562 142.171875 20.6875 142.148438 20.648438 L 142.066406 20.53125 L 141.992188 20.414062 L 141.917969 20.289062 C 141.722656 19.957031 141.558594 19.613281 141.425781 19.25 C 141.148438 18.496094 141.035156 17.71875 141.082031 16.914062 C 141.082031 16.8125 141.082031 16.714844 141.113281 16.617188 L 141.113281 16.464844 C 141.113281 16.417969 141.132812 16.367188 141.140625 16.316406 C 141.175781 16.117188 141.222656 15.917969 141.28125 15.71875 C 141.339844 15.527344 141.410156 15.3125 141.488281 15.144531 C 141.566406 14.976562 141.664062 14.769531 141.761719 14.59375 C 141.867188 14.414062 141.980469 14.242188 142.105469 14.078125 C 142.230469 13.910156 142.367188 13.753906 142.515625 13.605469 C 142.660156 13.460938 142.8125 13.324219 142.976562 13.199219 C 143.136719 13.066406 143.304688 12.949219 143.484375 12.839844 C 143.839844 12.621094 144.21875 12.445312 144.621094 12.320312 C 144.824219 12.257812 145.03125 12.207031 145.226562 12.164062 L 145.394531 12.105469 L 145.546875 12.105469 C 145.652344 12.105469 145.757812 12.078125 145.859375 12.074219 C 146.066406 12.0625 146.269531 12.0625 146.476562 12.074219 C 146.578125 12.074219 146.6875 12.097656 146.785156 12.113281 C 146.882812 12.128906 146.886719 12.113281 146.9375 12.136719 L 147.085938 12.164062 C 147.136719 12.164062 147.183594 12.191406 147.234375 12.203125 L 147.382812 12.242188 C 147.480469 12.269531 147.574219 12.300781 147.667969 12.335938 C 147.761719 12.371094 147.855469 12.410156 147.945312 12.457031 L 148.148438 12.558594 L 148.210938 12.59375 L 148.335938 12.667969 L 148.460938 12.753906 L 148.515625 12.796875 L 148.574219 12.839844 L 148.632812 12.886719 L 148.671875 12.921875 L 148.777344 13.019531 L 148.828125 13.070312 L 148.875 13.125 L 148.925781 13.171875 L 148.976562 13.230469 L 149.082031 13.332031 L 149.160156 13.445312 L 149.199219 13.503906 L 149.238281 13.566406 L 149.273438 13.628906 C 149.273438 13.648438 149.296875 13.667969 149.308594 13.6875 L 149.367188 13.816406 L 149.367188 13.882812 L 149.394531 13.945312 L 149.417969 14.011719 L 149.417969 14.078125 L 149.457031 14.214844 L 149.457031 14.453125 C 149.460938 14.464844 149.460938 14.476562 149.457031 14.488281 C 149.457031 14.535156 149.457031 14.582031 149.480469 14.628906 C 149.5 14.679688 149.480469 14.722656 149.480469 14.769531 L 149.480469 14.910156 C 149.480469 14.957031 149.480469 15.007812 149.480469 15.050781 C 149.480469 15.097656 149.480469 15.148438 149.480469 15.195312 L 149.480469 15.476562 L 149.453125 15.617188 L 149.453125 15.6875 L 149.433594 15.757812 L 149.402344 15.894531 C 149.402344 15.917969 149.402344 15.941406 149.402344 15.960938 L 149.378906 16.03125 L 149.339844 16.164062 C 149.320312 16.207031 149.300781 16.25 149.285156 16.292969 C 149.269531 16.339844 149.210938 16.460938 149.175781 16.546875 C 149.140625 16.632812 149.136719 16.628906 149.113281 16.671875 L 149.046875 16.792969 L 148.980469 16.910156 L 148.90625 17.027344 C 148.851562 17.101562 148.804688 17.179688 148.746094 17.246094 L 148.664062 17.355469 L 148.578125 17.457031 C 148.347656 17.722656 148.085938 17.957031 147.792969 18.152344 C 147.515625 18.335938 147.21875 18.472656 146.898438 18.5625 C 146.746094 18.601562 146.59375 18.628906 146.4375 18.640625 L 146.207031 18.640625 C 146.132812 18.644531 146.054688 18.644531 145.980469 18.640625 L 145.761719 18.601562 C 145.691406 18.601562 145.617188 18.570312 145.550781 18.546875 L 145.449219 18.546875 L 145.351562 18.503906 L 145.257812 18.460938 L 145.207031 18.433594 L 145.164062 18.410156 L 145.078125 18.359375 L 144.992188 18.300781 L 144.835938 18.167969 C 144.738281 18.082031 144.652344 17.984375 144.582031 17.878906 C 144.445312 17.671875 144.351562 17.445312 144.296875 17.203125 C 144.277344 17.089844 144.261719 16.980469 144.257812 16.867188 C 144.25 16.757812 144.25 16.652344 144.257812 16.542969 C 144.289062 16.179688 144.394531 15.839844 144.582031 15.527344 C 144.710938 15.3125 144.875 15.125 145.074219 14.96875 L 145.214844 14.863281 L 145.265625 14.832031 L 145.214844 14.859375 L 145.0625 14.957031 C 144.871094 15.097656 144.710938 15.261719 144.578125 15.457031 C 144.359375 15.769531 144.222656 16.113281 144.167969 16.488281 C 144.152344 16.601562 144.140625 16.714844 144.144531 16.828125 C 144.140625 16.953125 144.148438 17.078125 144.167969 17.199219 C 144.203125 17.46875 144.292969 17.722656 144.433594 17.957031 C 144.507812 18.082031 144.597656 18.199219 144.699219 18.304688 L 144.78125 18.386719 C 144.808594 18.414062 144.835938 18.4375 144.867188 18.460938 L 144.957031 18.535156 L 145.054688 18.597656 L 145.105469 18.632812 L 145.160156 18.660156 L 145.261719 18.722656 L 145.371094 18.769531 L 145.429688 18.769531 L 145.480469 18.796875 C 145.558594 18.828125 145.636719 18.847656 145.71875 18.878906 C 145.800781 18.90625 145.878906 18.917969 145.964844 18.929688 C 146.050781 18.941406 146.132812 18.957031 146.21875 18.96875 L 146.480469 18.96875 C 146.660156 18.964844 146.839844 18.945312 147.015625 18.90625 C 147.386719 18.824219 147.734375 18.6875 148.058594 18.496094 C 148.394531 18.292969 148.699219 18.050781 148.976562 17.769531 L 149.082031 17.65625 L 149.179688 17.542969 C 149.25 17.46875 149.308594 17.382812 149.371094 17.300781 C 149.4375 17.21875 149.429688 17.21875 149.460938 17.179688 L 149.546875 17.046875 L 149.628906 16.910156 C 149.65625 16.867188 149.683594 16.824219 149.707031 16.777344 C 149.734375 16.726562 149.808594 16.589844 149.851562 16.488281 L 149.917969 16.34375 C 149.9375 16.292969 149.953125 16.238281 149.972656 16.191406 L 150.003906 16.113281 L 150.097656 15.800781 C 150.097656 15.777344 150.097656 15.75 150.117188 15.722656 L 150.15625 15.566406 L 150.15625 15.402344 L 150.179688 15.234375 C 150.179688 15.179688 150.179688 15.121094 150.179688 15.066406 L 150.179688 14.722656 C 150.179688 14.664062 150.179688 14.605469 150.179688 14.550781 L 150.179688 14.375 C 150.175781 14.363281 150.175781 14.347656 150.179688 14.332031 L 150.179688 14.023438 L 150.136719 13.851562 L 150.136719 13.765625 L 150.082031 13.59375 L 150.082031 13.507812 L 150.007812 13.339844 C 150.007812 13.316406 149.984375 13.289062 149.96875 13.257812 L 149.925781 13.179688 L 149.882812 13.097656 C 149.882812 13.070312 149.851562 13.046875 149.839844 13.019531 L 149.742188 12.867188 L 149.628906 12.71875 C 149.613281 12.691406 149.597656 12.667969 149.578125 12.644531 L 149.515625 12.574219 L 149.457031 12.503906 C 149.4375 12.480469 149.417969 12.457031 149.394531 12.4375 L 149.265625 12.304688 L 149.195312 12.242188 L 149.125 12.183594 L 149.058594 12.121094 L 148.988281 12.0625 L 148.839844 11.953125 L 148.6875 11.851562 L 148.609375 11.800781 L 148.527344 11.75 L 148.367188 11.660156 C 148.261719 11.601562 148.152344 11.546875 148.039062 11.503906 C 147.925781 11.449219 147.8125 11.410156 147.691406 11.367188 L 147.519531 11.308594 C 147.460938 11.308594 147.402344 11.273438 147.339844 11.261719 L 147.160156 11.214844 C 147.101562 11.214844 147.042969 11.191406 146.980469 11.179688 C 146.859375 11.152344 146.738281 11.132812 146.617188 11.121094 C 146.371094 11.089844 146.121094 11.074219 145.875 11.082031 C 145.746094 11.082031 145.625 11.082031 145.503906 11.082031 L 145.257812 11.082031 C 145.195312 11.082031 145.132812 11.082031 145.074219 11.105469 C 144.824219 11.140625 144.582031 11.191406 144.339844 11.257812 C 143.851562 11.386719 143.386719 11.574219 142.945312 11.820312 C 142.726562 11.945312 142.515625 12.082031 142.3125 12.230469 C 142.109375 12.382812 141.914062 12.542969 141.730469 12.71875 C 141.546875 12.894531 141.375 13.082031 141.214844 13.28125 C 140.816406 13.753906 140.511719 14.285156 140.292969 14.863281 C 140.136719 15.320312 140.046875 15.84375 139.574219 16.074219 C 139.230469 16.210938 138.878906 16.292969 138.511719 16.320312 C 138.035156 16.390625 137.566406 16.480469 137.09375 16.558594 C 135.621094 16.804688 134.140625 16.96875 132.652344 17.054688 C 132.128906 17.089844 131.601562 17.113281 131.078125 17.132812 C 126.148438 17.378906 63.082031 17.34375 14.347656 17.285156 L 14.347656 18.214844 C 63.082031 18.15625 126.167969 18.121094 131.101562 18.296875 C 132.621094 18.347656 134.144531 18.445312 135.65625 18.636719 C 136.511719 18.746094 137.367188 18.878906 138.21875 19.046875 C 138.738281 19.148438 139.265625 19.074219 139.710938 19.414062 C 140.007812 19.660156 140.25 19.953125 140.429688 20.292969 C 141.046875 21.332031 141.535156 22.226562 142.476562 22.992188 C 142.8125 23.261719 143.167969 23.492188 143.550781 23.695312 C 143.925781 23.890625 144.316406 24.050781 144.71875 24.179688 C 145.136719 24.3125 145.5625 24.410156 145.996094 24.472656 C 146.898438 24.597656 147.796875 24.597656 148.695312 24.472656 C 149.625 24.34375 150.523438 24.109375 151.394531 23.765625 C 151.5 23.726562 151.613281 23.683594 151.722656 23.636719 L 151.886719 23.566406 L 151.96875 23.535156 L 152.050781 23.492188 L 152.375 23.339844 L 152.695312 23.171875 C 153.117188 22.945312 153.527344 22.695312 153.921875 22.425781 C 154.332031 22.152344 154.691406 21.871094 155.0625 21.582031 C 155.429688 21.289062 155.785156 20.992188 156.140625 20.691406 L 157.195312 19.808594 L 157.457031 19.589844 L 157.722656 19.378906 L 157.984375 19.167969 L 158.25 18.96875 C 158.605469 18.707031 158.96875 18.457031 159.339844 18.226562 C 159.707031 18 160.085938 17.792969 160.472656 17.605469 C 160.855469 17.421875 161.25 17.265625 161.648438 17.128906 C 162.042969 17 162.441406 16.898438 162.851562 16.820312 C 163.636719 16.675781 164.429688 16.632812 165.226562 16.699219 Z M 165.226562 16.699219 " fill-opacity="1" fill-rule="nonzero"/></g><path fill="#b38739" d="M 218.445312 17.757812 C 218.445312 17.628906 218.414062 17.496094 218.398438 17.351562 C 218.382812 17.203125 218.355469 17.074219 218.332031 16.941406 C 218.308594 16.804688 218.285156 16.65625 218.25 16.53125 C 218.125 15.929688 217.960938 15.335938 217.75 14.757812 C 217.644531 14.453125 217.523438 14.15625 217.390625 13.859375 C 217.324219 13.714844 217.257812 13.566406 217.1875 13.421875 C 217.113281 13.28125 217.039062 13.132812 216.964844 12.988281 C 216.808594 12.707031 216.648438 12.425781 216.472656 12.167969 C 216.390625 12.035156 216.300781 11.90625 216.210938 11.761719 C 216.171875 11.695312 216.121094 11.632812 216.074219 11.570312 L 215.941406 11.382812 C 215.589844 10.925781 215.210938 10.492188 214.796875 10.089844 C 214.378906 9.691406 213.933594 9.328125 213.460938 8.996094 L 213.265625 8.863281 L 213.074219 8.738281 C 212.941406 8.652344 212.808594 8.570312 212.664062 8.488281 C 212.390625 8.324219 212.109375 8.175781 211.816406 8.027344 C 210.679688 7.472656 209.484375 7.085938 208.234375 6.875 L 207.824219 6.808594 L 207.414062 6.757812 L 207.003906 6.722656 L 206.625 6.722656 C 206.191406 6.699219 205.757812 6.699219 205.320312 6.722656 L 204.832031 6.722656 L 204.460938 6.757812 L 204.15625 6.800781 L 204.460938 6.839844 L 204.828125 6.890625 L 205.050781 6.925781 C 205.128906 6.925781 205.214844 6.953125 205.304688 6.972656 C 207.386719 7.359375 209.296875 8.152344 211.039062 9.351562 C 211.277344 9.515625 211.515625 9.679688 211.734375 9.855469 C 211.851562 9.9375 211.957031 10.027344 212.066406 10.109375 L 212.226562 10.242188 L 212.382812 10.371094 C 212.792969 10.71875 213.171875 11.066406 213.511719 11.390625 C 213.851562 11.714844 214.207031 12.078125 214.574219 12.480469 L 214.707031 12.632812 L 214.84375 12.789062 C 214.933594 12.894531 215.023438 12.996094 215.113281 13.105469 C 215.292969 13.324219 215.464844 13.554688 215.640625 13.78125 C 216.328125 14.714844 216.90625 15.710938 217.367188 16.773438 C 217.742188 17.644531 218.035156 18.546875 218.238281 19.476562 C 218.261719 19.5625 218.273438 19.648438 218.292969 19.726562 C 218.308594 19.804688 218.328125 19.882812 218.339844 19.949219 C 218.367188 20.089844 218.386719 20.210938 218.402344 20.3125 L 218.453125 20.617188 C 218.453125 20.617188 218.453125 20.507812 218.484375 20.308594 C 218.484375 20.207031 218.484375 20.082031 218.507812 19.9375 C 218.507812 19.867188 218.507812 19.789062 218.507812 19.707031 C 218.507812 19.628906 218.507812 19.535156 218.507812 19.445312 C 218.519531 19.011719 218.503906 18.578125 218.46875 18.144531 C 218.476562 18.011719 218.460938 17.886719 218.445312 17.757812 Z M 218.445312 17.757812 " fill-opacity="1" fill-rule="nonzero"/><path fill="#b38739" d="M 212.855469 21.757812 C 212.84375 21.511719 212.816406 21.265625 212.769531 21.023438 C 212.714844 20.777344 212.644531 20.53125 212.558594 20.292969 C 212.472656 20.054688 212.371094 19.820312 212.25 19.59375 C 212.128906 19.367188 211.992188 19.152344 211.839844 18.941406 C 211.683594 18.738281 211.511719 18.542969 211.328125 18.363281 C 210.769531 17.796875 210.113281 17.390625 209.359375 17.132812 L 209.175781 17.074219 L 208.992188 17.027344 L 208.902344 17.027344 L 208.808594 17.007812 L 208.625 16.96875 C 208.144531 16.882812 207.65625 16.855469 207.167969 16.882812 C 206.703125 16.910156 206.246094 16.988281 205.796875 17.125 C 204.984375 17.367188 204.261719 17.765625 203.617188 18.316406 C 203.347656 18.550781 203.101562 18.804688 202.882812 19.082031 C 202.691406 19.320312 202.519531 19.570312 202.363281 19.835938 C 202.148438 20.214844 201.980469 20.609375 201.855469 21.027344 C 201.835938 21.09375 201.816406 21.15625 201.800781 21.222656 L 201.765625 21.367188 L 201.738281 21.480469 L 201.78125 21.371094 L 201.832031 21.230469 C 201.832031 21.179688 201.882812 21.117188 201.910156 21.046875 C 202.082031 20.660156 202.296875 20.296875 202.546875 19.953125 C 202.925781 19.445312 203.378906 19.015625 203.90625 18.65625 C 204.207031 18.445312 204.523438 18.269531 204.863281 18.128906 C 205.222656 17.976562 205.597656 17.863281 205.980469 17.789062 C 206.808594 17.625 207.625 17.65625 208.4375 17.882812 L 208.589844 17.925781 L 208.667969 17.953125 L 208.742188 17.953125 L 208.882812 18 L 209.027344 18.0625 C 209.601562 18.304688 210.09375 18.660156 210.503906 19.132812 C 210.632812 19.28125 210.753906 19.441406 210.863281 19.605469 C 211.074219 19.949219 211.230469 20.3125 211.328125 20.703125 C 211.378906 20.886719 211.421875 21.070312 211.453125 21.257812 C 211.476562 21.4375 211.492188 21.617188 211.492188 21.800781 L 211.492188 22.003906 C 211.492188 22.027344 211.492188 22.046875 211.492188 22.070312 L 211.492188 22.460938 L 211.472656 22.585938 C 211.464844 22.628906 211.457031 22.671875 211.445312 22.714844 L 211.417969 22.835938 L 211.386719 22.960938 L 211.351562 23.074219 L 211.351562 23.128906 L 211.328125 23.1875 C 211.320312 23.222656 211.304688 23.257812 211.289062 23.292969 C 211.230469 23.433594 211.160156 23.570312 211.082031 23.703125 C 211 23.847656 210.90625 23.984375 210.800781 24.109375 C 210.566406 24.390625 210.292969 24.617188 209.976562 24.800781 C 209.3125 25.207031 208.59375 25.34375 207.824219 25.207031 C 207.636719 25.175781 207.453125 25.125 207.273438 25.054688 C 207.101562 24.984375 206.9375 24.894531 206.785156 24.78125 C 206.632812 24.671875 206.496094 24.542969 206.375 24.398438 C 206.25 24.253906 206.140625 24.09375 206.050781 23.921875 C 205.957031 23.75 205.890625 23.570312 205.84375 23.382812 C 205.792969 23.195312 205.765625 23.007812 205.765625 22.8125 C 205.761719 22.621094 205.777344 22.433594 205.8125 22.242188 C 205.820312 22.199219 205.832031 22.152344 205.847656 22.109375 C 205.847656 22.085938 205.847656 22.0625 205.847656 22.042969 L 205.871094 21.976562 C 205.898438 21.890625 205.933594 21.804688 205.972656 21.722656 C 206.140625 21.398438 206.378906 21.132812 206.683594 20.933594 C 206.832031 20.839844 206.988281 20.765625 207.152344 20.707031 C 207.3125 20.65625 207.476562 20.617188 207.644531 20.601562 C 207.804688 20.582031 207.964844 20.582031 208.128906 20.601562 C 208.277344 20.621094 208.425781 20.65625 208.570312 20.710938 C 208.832031 20.816406 209.054688 20.976562 209.242188 21.1875 C 209.394531 21.367188 209.511719 21.566406 209.589844 21.789062 C 209.644531 21.960938 209.679688 22.136719 209.6875 22.316406 C 209.691406 22.429688 209.683594 22.542969 209.667969 22.65625 C 209.667969 22.699219 209.667969 22.726562 209.667969 22.746094 L 209.667969 22.777344 L 209.667969 22.746094 C 209.679688 22.71875 209.6875 22.691406 209.695312 22.660156 C 209.726562 22.550781 209.746094 22.433594 209.757812 22.316406 C 209.773438 22.128906 209.765625 21.941406 209.722656 21.757812 C 209.671875 21.503906 209.570312 21.269531 209.425781 21.054688 C 209.238281 20.789062 209.003906 20.578125 208.714844 20.421875 C 208.554688 20.339844 208.386719 20.273438 208.214844 20.230469 C 208.023438 20.183594 207.832031 20.15625 207.640625 20.152344 C 207.433594 20.148438 207.230469 20.171875 207.03125 20.214844 C 206.816406 20.265625 206.613281 20.335938 206.417969 20.433594 C 205.992188 20.652344 205.648438 20.960938 205.390625 21.367188 C 205.324219 21.472656 205.265625 21.578125 205.210938 21.691406 L 205.175781 21.777344 C 205.160156 21.804688 205.152344 21.832031 205.140625 21.863281 C 205.121094 21.921875 205.097656 21.980469 205.082031 22.039062 C 205.003906 22.277344 204.957031 22.523438 204.941406 22.777344 C 204.921875 23.035156 204.933594 23.289062 204.972656 23.546875 C 205.015625 23.808594 205.085938 24.058594 205.1875 24.304688 C 205.515625 25.089844 206.058594 25.675781 206.824219 26.050781 C 207.070312 26.175781 207.324219 26.269531 207.589844 26.335938 C 208.113281 26.464844 208.640625 26.492188 209.175781 26.421875 C 209.695312 26.347656 210.1875 26.1875 210.648438 25.933594 C 211.09375 25.691406 211.480469 25.378906 211.8125 24.996094 C 211.964844 24.816406 212.101562 24.621094 212.222656 24.417969 C 212.339844 24.222656 212.445312 24.015625 212.53125 23.804688 L 212.589844 23.644531 L 212.621094 23.566406 L 212.691406 23.320312 L 212.730469 23.152344 C 212.746094 23.097656 212.757812 23.042969 212.765625 22.988281 L 212.800781 22.816406 L 212.824219 22.644531 L 212.824219 21.933594 C 212.859375 21.875 212.859375 21.8125 212.855469 21.757812 Z M 212.855469 21.757812 " fill-opacity="1" fill-rule="nonzero"/><path fill="#b38739" d="M 259.609375 23.054688 C 260.367188 22.128906 260.996094 21.121094 261.496094 20.03125 C 261.992188 18.949219 262.332031 17.820312 262.519531 16.644531 L 262.554688 16.425781 C 262.566406 16.351562 262.578125 16.28125 262.582031 16.207031 C 262.582031 16.0625 262.613281 15.917969 262.625 15.773438 C 262.640625 15.628906 262.625 15.476562 262.65625 15.335938 C 262.65625 15.296875 262.65625 15.261719 262.65625 15.222656 L 262.65625 15.113281 C 262.65625 15.039062 262.65625 14.964844 262.65625 14.894531 C 262.652344 13.128906 262.160156 11.519531 261.171875 10.054688 C 260.867188 9.613281 260.523438 9.203125 260.136719 8.828125 C 259.40625 8.097656 258.5625 7.539062 257.605469 7.152344 C 257.160156 6.980469 256.703125 6.855469 256.234375 6.773438 L 256.066406 6.742188 L 255.894531 6.742188 L 255.558594 6.710938 C 255.503906 6.710938 255.449219 6.710938 255.394531 6.710938 L 254.578125 6.710938 L 254.265625 6.738281 C 254.210938 6.738281 254.15625 6.738281 254.109375 6.738281 L 253.953125 6.765625 L 253.652344 6.804688 C 252.902344 6.925781 252.207031 7.199219 251.574219 7.625 C 251.429688 7.71875 251.292969 7.820312 251.164062 7.933594 C 251.046875 8.042969 250.9375 8.160156 250.835938 8.28125 C 250.503906 8.710938 250.300781 9.191406 250.234375 9.730469 C 250.230469 9.835938 250.230469 9.945312 250.234375 10.050781 L 250.234375 10.480469 C 250.234375 10.527344 250.234375 10.566406 250.234375 10.609375 C 250.234375 10.648438 250.265625 10.765625 250.289062 10.835938 C 250.308594 10.902344 250.324219 10.964844 250.34375 11.023438 C 250.367188 11.082031 250.382812 11.128906 250.402344 11.175781 L 250.402344 11.234375 L 250.429688 11.289062 L 250.46875 11.375 L 250.5 11.441406 L 250.472656 11.371094 L 250.4375 11.285156 L 250.417969 11.230469 L 250.417969 11.167969 L 250.375 11.011719 C 250.375 10.953125 250.34375 10.890625 250.332031 10.820312 C 250.320312 10.753906 250.308594 10.679688 250.296875 10.601562 C 250.285156 10.523438 250.296875 10.519531 250.296875 10.472656 L 250.296875 10.054688 C 250.296875 9.957031 250.320312 9.851562 250.332031 9.746094 C 250.378906 9.511719 250.453125 9.285156 250.554688 9.070312 C 250.667969 8.824219 250.820312 8.601562 251.003906 8.402344 C 251.105469 8.292969 251.210938 8.195312 251.328125 8.101562 C 251.449219 8.003906 251.574219 7.914062 251.707031 7.832031 C 252.328125 7.472656 252.992188 7.257812 253.703125 7.191406 L 253.988281 7.164062 L 255.488281 7.164062 L 255.796875 7.21875 L 255.953125 7.21875 L 256.105469 7.25 C 256.527344 7.351562 256.9375 7.488281 257.335938 7.660156 C 257.746094 7.851562 258.132812 8.082031 258.496094 8.351562 C 259.273438 8.917969 259.910156 9.617188 260.394531 10.449219 C 260.925781 11.34375 261.261719 12.304688 261.402344 13.332031 C 261.480469 13.835938 261.507812 14.34375 261.484375 14.855469 L 261.484375 15.144531 C 261.488281 15.175781 261.488281 15.207031 261.484375 15.242188 C 261.484375 15.367188 261.457031 15.5 261.445312 15.652344 L 261.382812 16.058594 C 261.382812 16.125 261.355469 16.191406 261.34375 16.257812 L 261.308594 16.449219 C 261.089844 17.496094 260.738281 18.496094 260.25 19.445312 C 259.765625 20.398438 259.167969 21.269531 258.457031 22.066406 C 257.765625 22.847656 256.976562 23.511719 256.09375 24.070312 L 255.769531 24.265625 L 255.441406 24.453125 L 255.105469 24.617188 L 255.023438 24.660156 L 254.9375 24.695312 L 254.765625 24.769531 C 254.304688 24.953125 253.835938 25.097656 253.355469 25.207031 L 253.003906 25.289062 L 252.832031 25.289062 L 252.664062 25.320312 L 252.324219 25.363281 L 252.152344 25.363281 C 252.09375 25.363281 252.039062 25.363281 251.984375 25.363281 C 251.539062 25.414062 251.089844 25.414062 250.644531 25.371094 C 250.207031 25.308594 249.78125 25.210938 249.363281 25.078125 C 248.960938 24.945312 248.570312 24.789062 248.1875 24.605469 C 247.363281 24.21875 246.578125 23.761719 245.832031 23.242188 C 245.433594 22.96875 245.03125 22.683594 244.628906 22.382812 L 244.324219 22.152344 L 244.023438 21.921875 L 243.683594 21.6875 L 243.382812 21.445312 C 242.5625 20.800781 241.746094 20.097656 240.925781 19.398438 C 240.105469 18.699219 239.230469 17.957031 238.332031 17.246094 C 237.429688 16.527344 236.488281 15.863281 235.507812 15.25 C 235.011719 14.945312 234.5 14.660156 233.972656 14.402344 C 233.441406 14.140625 232.894531 13.914062 232.335938 13.726562 C 232.050781 13.636719 231.773438 13.550781 231.480469 13.480469 C 231.34375 13.441406 231.195312 13.414062 231.074219 13.386719 L 230.855469 13.34375 L 230.632812 13.3125 C 230.050781 13.222656 229.464844 13.199219 228.878906 13.238281 C 228.300781 13.277344 227.734375 13.382812 227.183594 13.554688 C 226.652344 13.714844 226.148438 13.925781 225.664062 14.1875 C 225.195312 14.445312 224.746094 14.742188 224.324219 15.070312 L 224.167969 15.191406 C 224.113281 15.234375 224.066406 15.277344 224.015625 15.324219 C 223.96875 15.367188 223.820312 15.5 223.726562 15.589844 C 223.542969 15.769531 223.367188 15.957031 223.203125 16.144531 C 222.878906 16.519531 222.585938 16.910156 222.316406 17.324219 C 222.058594 17.722656 221.828125 18.132812 221.617188 18.554688 C 221.226562 19.320312 220.933594 20.121094 220.726562 20.953125 C 220.640625 21.332031 220.578125 21.714844 220.539062 22.101562 C 220.539062 22.285156 220.515625 22.464844 220.511719 22.644531 C 220.511719 22.730469 220.511719 22.820312 220.511719 22.90625 L 220.511719 23.164062 C 220.550781 23.78125 220.710938 24.367188 220.992188 24.917969 C 221.105469 25.140625 221.242188 25.347656 221.398438 25.539062 C 221.417969 25.5625 221.4375 25.582031 221.453125 25.605469 L 221.511719 25.667969 L 221.617188 25.78125 L 221.722656 25.890625 L 221.828125 25.988281 C 221.863281 26.019531 221.894531 26.046875 221.933594 26.074219 L 222.03125 26.15625 L 222.214844 26.289062 L 222.378906 26.398438 L 222.519531 26.476562 L 222.578125 26.515625 L 222.628906 26.542969 L 222.710938 26.585938 L 222.777344 26.621094 L 222.714844 26.582031 L 222.636719 26.53125 L 222.585938 26.503906 L 222.53125 26.460938 L 222.398438 26.371094 L 222.242188 26.253906 L 222.070312 26.105469 L 221.976562 26.023438 C 221.949219 25.992188 221.914062 25.960938 221.882812 25.929688 L 221.789062 25.828125 L 221.691406 25.714844 L 221.59375 25.597656 L 221.542969 25.53125 L 221.5 25.46875 C 221.359375 25.269531 221.242188 25.0625 221.144531 24.84375 C 220.914062 24.304688 220.800781 23.742188 220.800781 23.152344 L 220.800781 22.90625 C 220.800781 22.824219 220.800781 22.738281 220.800781 22.65625 C 220.800781 22.488281 220.835938 22.316406 220.863281 22.140625 C 220.921875 21.777344 221.003906 21.421875 221.113281 21.070312 C 221.355469 20.285156 221.683594 19.539062 222.105469 18.832031 C 222.328125 18.449219 222.570312 18.078125 222.832031 17.722656 C 223.105469 17.355469 223.402344 17.003906 223.722656 16.675781 C 223.886719 16.507812 224.058594 16.347656 224.234375 16.191406 C 224.320312 16.113281 224.414062 16.039062 224.503906 15.96875 L 224.644531 15.863281 C 224.691406 15.832031 224.738281 15.792969 224.789062 15.761719 C 225.195312 15.472656 225.625 15.222656 226.074219 15.007812 C 226.976562 14.570312 227.933594 14.34375 228.9375 14.320312 C 229.449219 14.3125 229.953125 14.359375 230.449219 14.457031 C 230.511719 14.457031 230.578125 14.488281 230.640625 14.5 L 230.828125 14.539062 C 230.949219 14.578125 231.078125 14.605469 231.199219 14.648438 C 231.449219 14.714844 231.695312 14.808594 231.941406 14.898438 C 232.4375 15.09375 232.917969 15.320312 233.382812 15.578125 C 233.855469 15.835938 234.316406 16.121094 234.765625 16.425781 C 235.671875 17.046875 236.542969 17.71875 237.375 18.4375 C 238.21875 19.15625 239.011719 19.898438 239.832031 20.636719 C 240.652344 21.378906 241.445312 22.113281 242.289062 22.808594 L 242.601562 23.070312 L 242.914062 23.320312 L 243.53125 23.8125 C 243.941406 24.136719 244.351562 24.445312 244.789062 24.742188 C 245.613281 25.332031 246.488281 25.84375 247.40625 26.277344 C 247.863281 26.5 248.335938 26.6875 248.816406 26.847656 C 249.335938 27.007812 249.863281 27.125 250.402344 27.195312 C 250.96875 27.265625 251.535156 27.285156 252.101562 27.246094 L 252.320312 27.246094 L 252.53125 27.21875 L 252.964844 27.152344 L 253.179688 27.109375 L 253.285156 27.109375 L 253.390625 27.085938 L 253.800781 26.972656 C 254.363281 26.816406 254.910156 26.613281 255.441406 26.367188 L 255.636719 26.273438 L 255.734375 26.222656 C 255.769531 26.210938 255.800781 26.195312 255.832031 26.175781 C 255.964844 26.105469 256.09375 26.039062 256.242188 25.964844 L 256.625 25.742188 C 256.75 25.664062 256.867188 25.582031 256.996094 25.5 C 257.984375 24.808594 258.855469 23.996094 259.609375 23.054688 Z M 259.609375 23.054688 " fill-opacity="1" fill-rule="nonzero"/><path fill="#b38739" d="M 275.511719 26.152344 C 275.441406 25.828125 275.339844 25.515625 275.214844 25.207031 C 275.089844 24.921875 274.941406 24.652344 274.773438 24.390625 L 274.640625 24.1875 C 274.59375 24.125 274.542969 24.0625 274.5 23.996094 C 274.476562 23.964844 274.449219 23.933594 274.421875 23.902344 L 274.347656 23.808594 L 274.269531 23.714844 L 274.191406 23.625 C 273.761719 23.148438 273.273438 22.738281 272.730469 22.394531 C 272.199219 22.058594 271.632812 21.785156 271.039062 21.578125 C 270.457031 21.359375 269.859375 21.207031 269.246094 21.113281 C 268.085938 20.953125 266.933594 20.972656 265.78125 21.175781 C 265.257812 21.265625 264.742188 21.390625 264.234375 21.542969 L 264.054688 21.597656 L 263.875 21.660156 C 263.757812 21.695312 263.640625 21.730469 263.527344 21.777344 L 263.191406 21.898438 L 262.867188 22.03125 L 262.707031 22.097656 L 262.554688 22.160156 L 262.402344 22.226562 L 262.25 22.296875 L 261.964844 22.429688 L 261.683594 22.5625 L 261.550781 22.632812 L 261.417969 22.699219 L 261.164062 22.828125 C 261 22.917969 260.84375 23 260.699219 23.085938 C 260.398438 23.25 260.136719 23.410156 259.90625 23.550781 L 259.589844 23.742188 L 259.324219 23.910156 L 258.960938 24.148438 L 258.839844 24.230469 L 258.972656 24.164062 L 259.363281 23.980469 L 259.644531 23.847656 L 259.984375 23.699219 C 260.226562 23.589844 260.507812 23.472656 260.804688 23.34375 L 261.296875 23.152344 L 261.558594 23.054688 L 261.691406 23.003906 L 261.832031 22.960938 L 262.117188 22.863281 L 262.414062 22.765625 L 262.570312 22.71875 L 262.722656 22.675781 L 262.878906 22.625 L 263.039062 22.578125 L 263.363281 22.492188 L 263.699219 22.414062 L 264.042969 22.339844 L 264.21875 22.304688 L 264.394531 22.273438 C 264.886719 22.179688 265.378906 22.121094 265.875 22.089844 C 266.929688 22.019531 267.96875 22.105469 268.996094 22.351562 C 269.511719 22.476562 270.011719 22.648438 270.492188 22.867188 C 270.96875 23.082031 271.414062 23.347656 271.832031 23.660156 C 272.632812 24.226562 273.214844 24.964844 273.578125 25.871094 C 273.648438 26.070312 273.703125 26.273438 273.738281 26.476562 C 273.738281 26.578125 273.761719 26.679688 273.769531 26.777344 C 273.777344 26.875 273.769531 26.976562 273.769531 27.078125 C 273.757812 27.46875 273.6875 27.851562 273.558594 28.222656 C 273.429688 28.609375 273.25 28.96875 273.019531 29.304688 C 272.773438 29.65625 272.476562 29.964844 272.136719 30.226562 C 271.757812 30.507812 271.347656 30.738281 270.90625 30.914062 C 270.445312 31.097656 269.96875 31.222656 269.472656 31.28125 C 268.992188 31.347656 268.515625 31.324219 268.046875 31.210938 C 267.597656 31.101562 267.214844 30.875 266.902344 30.53125 C 266.828125 30.449219 266.757812 30.363281 266.699219 30.269531 C 266.632812 30.175781 266.574219 30.078125 266.527344 29.976562 C 266.476562 29.875 266.429688 29.761719 266.390625 29.652344 L 266.367188 29.566406 C 266.367188 29.539062 266.367188 29.511719 266.339844 29.488281 C 266.316406 29.464844 266.3125 29.382812 266.300781 29.328125 C 266.277344 29.21875 266.265625 29.105469 266.257812 28.992188 C 266.257812 28.941406 266.257812 28.882812 266.257812 28.824219 C 266.257812 28.769531 266.257812 28.769531 266.257812 28.738281 C 266.257812 28.710938 266.257812 28.683594 266.257812 28.652344 C 266.28125 28.421875 266.324219 28.195312 266.398438 27.972656 L 266.421875 27.890625 L 266.453125 27.808594 L 266.515625 27.648438 L 266.589844 27.488281 L 266.671875 27.34375 C 266.789062 27.144531 266.925781 26.957031 267.082031 26.789062 C 267.226562 26.625 267.382812 26.476562 267.558594 26.34375 C 267.726562 26.21875 267.902344 26.109375 268.09375 26.023438 C 268.273438 25.941406 268.464844 25.878906 268.660156 25.84375 L 268.941406 25.84375 C 269.03125 25.835938 269.121094 25.835938 269.210938 25.84375 L 269.347656 25.84375 L 269.472656 25.871094 L 269.601562 25.871094 L 269.722656 25.914062 C 269.878906 25.972656 270.023438 26.046875 270.164062 26.136719 C 270.40625 26.296875 270.613281 26.5 270.777344 26.742188 C 270.84375 26.839844 270.902344 26.945312 270.949219 27.054688 C 270.988281 27.148438 271.019531 27.246094 271.042969 27.34375 C 271.074219 27.476562 271.085938 27.613281 271.082031 27.753906 C 271.082031 27.800781 271.082031 27.839844 271.082031 27.863281 L 271.082031 27.902344 L 271.082031 27.867188 C 271.085938 27.828125 271.085938 27.792969 271.082031 27.757812 C 271.105469 27.609375 271.105469 27.464844 271.082031 27.316406 C 271.074219 27.210938 271.054688 27.105469 271.027344 27.003906 C 270.988281 26.878906 270.941406 26.757812 270.886719 26.640625 C 270.742188 26.355469 270.546875 26.105469 270.300781 25.898438 C 270.15625 25.773438 270 25.667969 269.835938 25.578125 L 269.695312 25.511719 L 269.625 25.480469 L 269.550781 25.453125 L 269.402344 25.402344 L 269.242188 25.402344 L 269.164062 25.378906 L 268.566406 25.378906 C 268.324219 25.398438 268.085938 25.441406 267.851562 25.511719 C 267.609375 25.59375 267.378906 25.699219 267.15625 25.828125 C 266.925781 25.960938 266.710938 26.121094 266.511719 26.300781 C 266.304688 26.488281 266.121094 26.695312 265.957031 26.925781 L 265.832031 27.101562 L 265.722656 27.285156 C 265.6875 27.351562 265.648438 27.414062 265.617188 27.476562 L 265.566406 27.574219 L 265.523438 27.679688 C 265.398438 27.957031 265.304688 28.246094 265.246094 28.546875 C 265.246094 28.585938 265.246094 28.625 265.226562 28.664062 C 265.207031 28.707031 265.226562 28.742188 265.226562 28.78125 C 265.226562 28.816406 265.226562 28.941406 265.226562 29.023438 C 265.214844 29.183594 265.214844 29.347656 265.226562 29.507812 C 265.226562 29.589844 265.226562 29.675781 265.261719 29.757812 C 265.265625 29.800781 265.273438 29.839844 265.285156 29.882812 L 265.308594 30 C 265.347656 30.160156 265.394531 30.3125 265.449219 30.46875 C 265.566406 30.789062 265.730469 31.089844 265.9375 31.363281 C 266.148438 31.648438 266.402344 31.890625 266.6875 32.097656 C 266.835938 32.199219 266.988281 32.289062 267.144531 32.371094 C 267.296875 32.449219 267.457031 32.515625 267.617188 32.578125 C 267.941406 32.6875 268.273438 32.765625 268.609375 32.808594 C 268.9375 32.851562 269.265625 32.863281 269.597656 32.851562 C 270.238281 32.820312 270.867188 32.703125 271.476562 32.503906 C 272.078125 32.308594 272.640625 32.035156 273.167969 31.683594 C 273.300781 31.597656 273.425781 31.5 273.550781 31.402344 L 273.726562 31.246094 L 273.816406 31.167969 L 273.898438 31.085938 C 274.335938 30.667969 274.695312 30.191406 274.972656 29.652344 C 275.402344 28.851562 275.621094 28 275.625 27.09375 C 275.625 26.9375 275.617188 26.78125 275.601562 26.625 C 275.578125 26.464844 275.550781 26.308594 275.511719 26.152344 Z M 275.511719 26.152344 " fill-opacity="1" fill-rule="nonzero"/><path fill="#b38739" d="M 260.300781 3.355469 C 260.324219 3.375 260.347656 3.390625 260.367188 3.414062 L 260.4375 3.476562 L 260.578125 3.609375 L 260.738281 3.757812 L 261.085938 4.105469 L 261.265625 4.300781 L 261.457031 4.511719 C 261.519531 4.585938 261.582031 4.664062 261.644531 4.742188 C 261.707031 4.820312 261.773438 4.894531 261.835938 4.976562 C 261.898438 5.058594 261.964844 5.140625 262.023438 5.226562 C 262.550781 5.953125 262.992188 6.726562 263.339844 7.550781 C 263.660156 8.316406 263.914062 9.105469 264.105469 9.914062 C 264.308594 10.722656 264.445312 11.539062 264.515625 12.371094 C 264.574219 13.265625 264.527344 14.152344 264.382812 15.035156 C 264.382812 15.144531 264.347656 15.246094 264.332031 15.347656 C 264.3125 15.449219 264.285156 15.546875 264.265625 15.644531 C 264.246094 15.746094 264.222656 15.839844 264.199219 15.933594 L 264.125 16.207031 L 264.09375 16.339844 L 264.054688 16.464844 L 263.976562 16.707031 L 263.90625 16.933594 L 263.828125 17.136719 L 263.761719 17.320312 L 263.726562 17.40625 C 263.726562 17.4375 263.726562 17.460938 263.695312 17.484375 C 263.652344 17.585938 263.613281 17.671875 263.585938 17.746094 L 263.492188 17.96875 L 263.632812 17.777344 C 263.683594 17.714844 263.742188 17.636719 263.804688 17.546875 C 263.828125 17.523438 263.84375 17.5 263.859375 17.476562 L 263.910156 17.398438 L 264.023438 17.230469 L 264.144531 17.046875 L 264.269531 16.839844 L 264.398438 16.613281 L 264.46875 16.492188 L 264.53125 16.367188 L 264.671875 16.105469 C 264.714844 16.015625 264.753906 15.921875 264.796875 15.824219 C 264.84375 15.722656 264.886719 15.628906 264.929688 15.527344 C 264.96875 15.425781 265.011719 15.324219 265.050781 15.21875 C 265.398438 14.304688 265.605469 13.355469 265.679688 12.378906 C 265.746094 11.441406 265.675781 10.511719 265.46875 9.59375 C 265.238281 8.683594 264.882812 7.824219 264.394531 7.019531 C 263.878906 6.175781 263.253906 5.425781 262.519531 4.765625 L 262.269531 4.542969 C 262.1875 4.46875 262.101562 4.40625 262.019531 4.339844 L 261.777344 4.148438 L 261.542969 3.976562 L 261.421875 3.894531 L 261.3125 3.816406 L 261.089844 3.675781 L 260.886719 3.542969 L 260.691406 3.433594 L 260.515625 3.335938 L 260.472656 3.289062 L 260.394531 3.25 L 260.136719 3.128906 L 259.917969 3.019531 L 260.105469 3.175781 Z M 260.300781 3.355469 " fill-opacity="1" fill-rule="nonzero"/><g clip-path="url(#558e43e997)"><path fill="#b38739" d="M 307.132812 17.207031 C 306.609375 17.1875 306.085938 17.160156 305.5625 17.128906 C 304.070312 17.042969 302.589844 16.878906 301.117188 16.632812 C 300.648438 16.554688 300.175781 16.464844 299.703125 16.394531 C 299.335938 16.367188 298.980469 16.28125 298.640625 16.144531 C 298.164062 15.917969 298.074219 15.390625 297.917969 14.9375 C 297.703125 14.355469 297.394531 13.828125 297 13.351562 C 296.839844 13.15625 296.667969 12.96875 296.480469 12.792969 C 296.296875 12.617188 296.105469 12.457031 295.902344 12.304688 C 295.699219 12.15625 295.488281 12.019531 295.265625 11.894531 C 294.824219 11.648438 294.359375 11.460938 293.875 11.328125 C 293.632812 11.265625 293.386719 11.214844 293.140625 11.179688 C 293.078125 11.179688 293.019531 11.179688 292.957031 11.152344 L 292.769531 11.152344 C 292.644531 11.152344 292.519531 11.152344 292.394531 11.152344 C 292.148438 11.148438 291.898438 11.164062 291.652344 11.195312 C 291.53125 11.207031 291.410156 11.226562 291.289062 11.253906 C 291.226562 11.253906 291.167969 11.273438 291.109375 11.289062 L 290.929688 11.335938 C 290.867188 11.335938 290.808594 11.367188 290.75 11.382812 L 290.578125 11.441406 C 290.457031 11.484375 290.34375 11.523438 290.234375 11.574219 C 290.121094 11.621094 290.007812 11.675781 289.902344 11.734375 L 289.742188 11.824219 L 289.660156 11.875 L 289.582031 11.921875 L 289.429688 12.027344 L 289.28125 12.136719 L 289.214844 12.195312 L 289.144531 12.253906 L 289.003906 12.378906 L 288.878906 12.507812 C 288.855469 12.53125 288.832031 12.554688 288.8125 12.578125 L 288.753906 12.648438 L 288.691406 12.71875 C 288.671875 12.742188 288.65625 12.765625 288.640625 12.792969 L 288.53125 12.9375 L 288.429688 13.09375 C 288.429688 13.121094 288.398438 13.144531 288.386719 13.171875 L 288.34375 13.253906 L 288.300781 13.332031 C 288.300781 13.359375 288.269531 13.390625 288.261719 13.414062 L 288.191406 13.582031 L 288.191406 13.667969 L 288.160156 13.753906 L 288.132812 13.839844 L 288.132812 13.925781 C 288.132812 13.984375 288.105469 14.042969 288.089844 14.097656 L 288.089844 14.367188 C 288.09375 14.382812 288.09375 14.398438 288.089844 14.414062 L 288.089844 14.585938 C 288.089844 14.644531 288.089844 14.699219 288.089844 14.757812 C 288.089844 14.816406 288.089844 14.875 288.089844 14.933594 L 288.089844 15.101562 C 288.089844 15.160156 288.089844 15.214844 288.089844 15.269531 L 288.117188 15.4375 L 288.117188 15.601562 L 288.152344 15.761719 C 288.152344 15.785156 288.152344 15.8125 288.152344 15.839844 L 288.152344 15.917969 L 288.203125 16.074219 L 288.226562 16.148438 L 288.253906 16.226562 L 288.3125 16.378906 L 288.378906 16.527344 C 288.417969 16.625 288.472656 16.71875 288.519531 16.8125 C 288.570312 16.90625 288.574219 16.902344 288.597656 16.949219 L 288.679688 17.082031 L 288.765625 17.214844 C 288.800781 17.253906 288.824219 17.300781 288.855469 17.335938 C 288.890625 17.375 288.980469 17.503906 289.050781 17.578125 L 289.148438 17.695312 L 289.253906 17.804688 C 289.527344 18.085938 289.835938 18.332031 290.171875 18.535156 C 290.496094 18.726562 290.84375 18.863281 291.210938 18.941406 C 291.386719 18.980469 291.566406 19.003906 291.75 19.003906 L 292.011719 19.003906 C 292.097656 19.003906 292.183594 19.003906 292.265625 18.96875 C 292.347656 18.929688 292.429688 18.929688 292.511719 18.914062 C 292.59375 18.898438 292.667969 18.867188 292.742188 18.832031 L 292.800781 18.808594 L 292.859375 18.808594 L 292.96875 18.757812 L 293.070312 18.699219 L 293.125 18.667969 L 293.171875 18.636719 L 293.273438 18.570312 L 293.363281 18.496094 C 293.390625 18.476562 293.417969 18.449219 293.449219 18.421875 C 293.476562 18.398438 293.503906 18.371094 293.53125 18.339844 C 293.632812 18.234375 293.722656 18.121094 293.796875 17.992188 C 293.9375 17.757812 294.023438 17.507812 294.0625 17.234375 C 294.078125 17.113281 294.085938 16.988281 294.085938 16.867188 C 294.085938 16.753906 294.078125 16.640625 294.0625 16.527344 C 294.003906 16.152344 293.867188 15.808594 293.652344 15.496094 C 293.519531 15.289062 293.355469 15.113281 293.15625 14.96875 L 293.003906 14.871094 L 292.957031 14.84375 L 293.003906 14.875 L 293.148438 14.984375 C 293.324219 15.128906 293.472656 15.300781 293.589844 15.5 C 293.777344 15.8125 293.882812 16.152344 293.914062 16.515625 C 293.921875 16.621094 293.921875 16.730469 293.914062 16.839844 C 293.910156 16.949219 293.894531 17.0625 293.875 17.175781 C 293.820312 17.417969 293.726562 17.640625 293.589844 17.851562 C 293.515625 17.957031 293.433594 18.050781 293.335938 18.140625 L 293.257812 18.207031 L 293.183594 18.269531 L 293.09375 18.328125 L 293.007812 18.382812 L 292.964844 18.40625 L 292.914062 18.429688 L 292.820312 18.476562 L 292.722656 18.515625 L 292.621094 18.515625 C 292.554688 18.542969 292.480469 18.554688 292.410156 18.574219 L 292.191406 18.613281 C 292.117188 18.617188 292.039062 18.617188 291.964844 18.613281 L 291.734375 18.613281 C 291.578125 18.601562 291.425781 18.574219 291.273438 18.535156 C 290.953125 18.445312 290.652344 18.308594 290.375 18.125 C 290.085938 17.925781 289.824219 17.695312 289.59375 17.429688 L 289.507812 17.324219 L 289.425781 17.21875 C 289.367188 17.148438 289.320312 17.070312 289.265625 16.996094 L 289.191406 16.882812 L 289.125 16.765625 L 289.058594 16.640625 C 289.058594 16.601562 289.011719 16.558594 288.996094 16.519531 C 288.980469 16.476562 288.914062 16.351562 288.886719 16.265625 L 288.832031 16.132812 C 288.820312 16.089844 288.808594 16.046875 288.792969 16.003906 L 288.792969 15.933594 C 288.789062 15.910156 288.789062 15.890625 288.792969 15.867188 L 288.757812 15.726562 L 288.757812 15.589844 L 288.734375 15.449219 L 288.734375 15.167969 C 288.734375 15.117188 288.734375 15.074219 288.734375 15.023438 L 288.734375 14.742188 C 288.734375 14.691406 288.734375 14.648438 288.734375 14.601562 C 288.734375 14.558594 288.734375 14.507812 288.753906 14.457031 C 288.753906 14.449219 288.753906 14.4375 288.753906 14.425781 L 288.753906 14.183594 L 288.796875 14.050781 L 288.796875 13.984375 L 288.84375 13.851562 L 288.84375 13.789062 L 288.90625 13.660156 C 288.90625 13.640625 288.929688 13.621094 288.9375 13.597656 L 288.976562 13.539062 L 289.011719 13.476562 L 289.054688 13.417969 L 289.140625 13.332031 L 289.230469 13.222656 L 289.277344 13.164062 L 289.328125 13.117188 L 289.378906 13.0625 C 289.390625 13.042969 289.410156 13.027344 289.425781 13.011719 L 289.550781 12.921875 L 289.605469 12.875 L 289.664062 12.828125 L 289.722656 12.785156 L 289.777344 12.742188 L 289.902344 12.65625 L 290.027344 12.582031 L 290.089844 12.546875 L 290.160156 12.507812 L 290.289062 12.445312 C 290.382812 12.398438 290.472656 12.359375 290.570312 12.324219 C 290.664062 12.289062 290.757812 12.257812 290.855469 12.230469 L 291.003906 12.191406 C 291.050781 12.191406 291.101562 12.160156 291.152344 12.152344 L 291.300781 12.125 C 291.351562 12.125 291.398438 12.125 291.453125 12.101562 C 291.507812 12.074219 291.660156 12.074219 291.761719 12.0625 C 291.964844 12.050781 292.171875 12.050781 292.378906 12.0625 C 292.480469 12.0625 292.582031 12.0625 292.691406 12.089844 L 292.839844 12.089844 L 292.996094 12.117188 C 293.199219 12.15625 293.40625 12.210938 293.601562 12.273438 C 294.003906 12.398438 294.382812 12.570312 294.742188 12.792969 C 294.917969 12.898438 295.089844 13.015625 295.25 13.148438 C 295.410156 13.273438 295.566406 13.410156 295.707031 13.558594 C 295.855469 13.703125 295.992188 13.859375 296.117188 14.027344 C 296.246094 14.191406 296.359375 14.363281 296.460938 14.542969 C 296.558594 14.722656 296.65625 14.90625 296.738281 15.09375 C 296.816406 15.28125 296.882812 15.476562 296.945312 15.671875 C 297 15.867188 297.046875 16.066406 297.085938 16.269531 C 297.085938 16.316406 297.085938 16.367188 297.113281 16.417969 L 297.113281 16.566406 C 297.113281 16.667969 297.113281 16.765625 297.140625 16.867188 C 297.191406 17.667969 297.074219 18.445312 296.796875 19.199219 C 296.667969 19.5625 296.503906 19.910156 296.304688 20.242188 L 296.234375 20.363281 L 296.160156 20.484375 L 296.078125 20.597656 C 296.054688 20.636719 296.027344 20.675781 296 20.710938 L 295.832031 20.933594 L 295.65625 21.144531 C 295.417969 21.433594 295.15625 21.695312 294.871094 21.933594 C 294.605469 22.144531 294.316406 22.328125 294.011719 22.484375 C 292.636719 23.15625 291.191406 23.382812 289.675781 23.160156 C 288.84375 23.066406 288.035156 22.875 287.246094 22.597656 L 286.949219 22.484375 L 286.796875 22.425781 L 286.648438 22.363281 L 286.359375 22.234375 L 286.066406 22.097656 C 285.679688 21.902344 285.300781 21.6875 284.933594 21.453125 C 284.558594 21.214844 284.191406 20.960938 283.828125 20.691406 C 283.464844 20.425781 283.097656 20.148438 282.738281 19.871094 C 282.378906 19.597656 282.007812 19.308594 281.640625 19.027344 L 281.085938 18.613281 L 280.796875 18.40625 L 280.511719 18.207031 C 280.121094 17.945312 279.726562 17.699219 279.320312 17.472656 C 278.921875 17.25 278.511719 17.046875 278.089844 16.863281 C 277.671875 16.6875 277.238281 16.539062 276.800781 16.417969 C 275.535156 16.0625 274.25 15.980469 272.949219 16.164062 L 272.652344 16.210938 C 272.554688 16.210938 272.457031 16.25 272.355469 16.265625 C 272.164062 16.304688 271.972656 16.34375 271.785156 16.390625 C 271.59375 16.441406 271.410156 16.480469 271.230469 16.539062 L 270.960938 16.617188 L 270.828125 16.65625 L 270.699219 16.699219 L 270.4375 16.785156 L 270.308594 16.828125 L 270.183594 16.875 L 269.9375 16.964844 C 269.855469 16.996094 269.769531 17.023438 269.691406 17.054688 L 269.214844 17.246094 L 268.765625 17.441406 C 268.175781 17.703125 267.640625 17.960938 267.15625 18.207031 C 266.671875 18.453125 266.207031 18.65625 265.847656 18.867188 L 264.878906 19.390625 L 264.058594 19.835938 L 264.902344 19.425781 L 265.898438 18.964844 C 266.285156 18.785156 266.71875 18.582031 267.226562 18.367188 C 267.734375 18.148438 268.265625 17.921875 268.863281 17.699219 L 269.320312 17.535156 L 269.792969 17.375 C 269.871094 17.347656 269.953125 17.324219 270.035156 17.300781 L 270.285156 17.222656 L 270.410156 17.1875 L 270.925781 17.046875 L 271.054688 17.019531 L 271.320312 16.957031 C 271.496094 16.910156 271.679688 16.878906 271.867188 16.84375 C 272.050781 16.804688 272.234375 16.78125 272.421875 16.753906 L 272.707031 16.710938 L 272.992188 16.683594 C 273.785156 16.613281 274.574219 16.648438 275.359375 16.792969 C 275.765625 16.867188 276.167969 16.96875 276.558594 17.101562 C 276.960938 17.234375 277.351562 17.394531 277.734375 17.574219 C 278.125 17.761719 278.5 17.96875 278.867188 18.199219 C 279.242188 18.425781 279.601562 18.675781 279.957031 18.9375 L 280.222656 19.140625 L 280.488281 19.347656 L 280.753906 19.5625 L 281.015625 19.777344 L 282.066406 20.664062 C 282.421875 20.960938 282.78125 21.257812 283.148438 21.550781 C 283.515625 21.847656 283.894531 22.125 284.285156 22.394531 C 284.683594 22.667969 285.09375 22.917969 285.515625 23.144531 L 285.835938 23.3125 L 286.160156 23.464844 L 286.242188 23.503906 L 286.320312 23.539062 L 286.484375 23.609375 C 286.597656 23.65625 286.707031 23.699219 286.8125 23.738281 C 287.683594 24.082031 288.585938 24.316406 289.511719 24.441406 C 290.410156 24.570312 291.3125 24.570312 292.210938 24.441406 C 292.644531 24.378906 293.070312 24.28125 293.488281 24.152344 C 293.894531 24.023438 294.285156 23.859375 294.660156 23.664062 C 295.039062 23.464844 295.398438 23.230469 295.734375 22.964844 C 296.691406 22.199219 297.179688 21.300781 297.78125 20.265625 C 297.964844 19.925781 298.203125 19.636719 298.5 19.394531 C 298.949219 19.054688 299.476562 19.128906 299.996094 19.023438 C 300.84375 18.851562 301.699219 18.722656 302.554688 18.617188 C 304.066406 18.421875 305.585938 18.328125 307.109375 18.277344 C 312.042969 18.097656 375.148438 18.136719 423.867188 18.195312 L 423.867188 17.285156 C 375.160156 17.34375 312.074219 17.378906 307.132812 17.207031 Z M 307.132812 17.207031 " fill-opacity="1" fill-rule="nonzero"/></g><path fill="#b38739" d="M 222.570312 13.8125 C 222.746094 13.582031 222.917969 13.351562 223.097656 13.136719 C 223.191406 13.027344 223.28125 12.921875 223.371094 12.816406 L 223.503906 12.660156 L 223.640625 12.507812 C 224.003906 12.101562 224.363281 11.742188 224.699219 11.421875 C 225.035156 11.097656 225.417969 10.75 225.832031 10.398438 L 225.988281 10.269531 L 226.144531 10.136719 C 226.257812 10.054688 226.363281 9.964844 226.476562 9.882812 C 226.699219 9.707031 226.9375 9.542969 227.175781 9.378906 C 228.917969 8.183594 230.828125 7.390625 232.90625 7 C 232.996094 7 233.082031 6.96875 233.160156 6.957031 L 233.386719 6.917969 L 233.75 6.871094 L 234.058594 6.828125 L 233.75 6.789062 L 233.382812 6.75 L 232.890625 6.75 C 232.457031 6.726562 232.023438 6.726562 231.589844 6.75 L 231.207031 6.75 L 230.796875 6.789062 L 230.390625 6.835938 L 229.957031 6.902344 C 228.707031 7.113281 227.515625 7.5 226.375 8.058594 C 226.085938 8.207031 225.800781 8.351562 225.527344 8.515625 C 225.394531 8.597656 225.257812 8.679688 225.117188 8.765625 L 224.734375 9.023438 C 224.261719 9.355469 223.8125 9.71875 223.394531 10.117188 C 222.984375 10.523438 222.601562 10.953125 222.25 11.410156 L 222.117188 11.601562 C 222.070312 11.660156 222.023438 11.722656 221.980469 11.789062 C 221.890625 11.917969 221.800781 12.046875 221.71875 12.199219 C 221.542969 12.464844 221.382812 12.742188 221.226562 13.015625 C 221.152344 13.160156 221.078125 13.304688 221.007812 13.453125 C 220.9375 13.597656 220.867188 13.742188 220.800781 13.890625 C 220.671875 14.183594 220.546875 14.484375 220.441406 14.785156 C 220.234375 15.367188 220.066406 15.957031 219.941406 16.558594 C 219.910156 16.699219 219.882812 16.84375 219.859375 16.96875 C 219.835938 17.097656 219.816406 17.246094 219.792969 17.378906 C 219.773438 17.507812 219.757812 17.644531 219.746094 17.789062 C 219.734375 17.929688 219.714844 18.042969 219.707031 18.164062 C 219.671875 18.597656 219.660156 19.03125 219.667969 19.46875 C 219.667969 19.558594 219.667969 19.648438 219.667969 19.730469 C 219.667969 19.8125 219.667969 19.890625 219.667969 19.957031 C 219.667969 20.101562 219.667969 20.230469 219.691406 20.328125 C 219.710938 20.527344 219.726562 20.636719 219.726562 20.636719 L 219.773438 20.332031 C 219.773438 20.234375 219.8125 20.109375 219.835938 19.972656 C 219.835938 19.902344 219.867188 19.828125 219.878906 19.746094 C 219.894531 19.664062 219.914062 19.582031 219.9375 19.496094 C 220.140625 18.578125 220.429688 17.691406 220.800781 16.828125 C 221.277344 15.753906 221.867188 14.75 222.570312 13.8125 Z M 222.570312 13.8125 " fill-opacity="1" fill-rule="nonzero"/><path fill="#b38739" d="M 236.40625 21.222656 C 236.40625 21.167969 236.367188 21.101562 236.347656 21.027344 C 236.222656 20.609375 236.054688 20.214844 235.839844 19.835938 C 235.6875 19.566406 235.515625 19.308594 235.324219 19.066406 C 235.101562 18.789062 234.855469 18.53125 234.585938 18.300781 C 233.945312 17.75 233.21875 17.351562 232.40625 17.109375 C 231.960938 16.972656 231.503906 16.890625 231.035156 16.867188 C 230.546875 16.839844 230.0625 16.867188 229.578125 16.953125 L 229.398438 16.988281 L 229.304688 17.011719 L 229.214844 17.011719 L 229.03125 17.058594 L 228.84375 17.117188 C 228.09375 17.371094 227.4375 17.78125 226.875 18.34375 C 226.691406 18.527344 226.523438 18.722656 226.367188 18.929688 C 226.214844 19.136719 226.078125 19.355469 225.957031 19.582031 C 225.84375 19.8125 225.742188 20.050781 225.664062 20.292969 C 225.582031 20.53125 225.511719 20.773438 225.460938 21.019531 C 225.417969 21.261719 225.390625 21.507812 225.375 21.753906 C 225.375 21.808594 225.375 21.871094 225.375 21.933594 L 225.375 22.113281 C 225.375 22.171875 225.375 22.230469 225.375 22.289062 L 225.375 22.640625 L 225.402344 22.8125 L 225.433594 22.984375 C 225.441406 23.039062 225.453125 23.09375 225.46875 23.148438 L 225.507812 23.316406 L 225.554688 23.480469 L 225.582031 23.5625 L 225.609375 23.640625 C 225.628906 23.695312 225.648438 23.746094 225.671875 23.800781 C 225.757812 24.011719 225.859375 24.21875 225.976562 24.414062 C 226.097656 24.617188 226.234375 24.8125 226.386719 24.992188 C 226.71875 25.375 227.105469 25.6875 227.550781 25.929688 C 228.023438 26.195312 228.527344 26.363281 229.0625 26.4375 C 229.597656 26.511719 230.125 26.480469 230.648438 26.351562 C 230.914062 26.285156 231.167969 26.191406 231.414062 26.070312 C 231.660156 25.945312 231.886719 25.796875 232.097656 25.617188 C 232.304688 25.441406 232.488281 25.242188 232.648438 25.019531 C 232.8125 24.804688 232.949219 24.570312 233.058594 24.320312 C 233.160156 24.074219 233.230469 23.824219 233.273438 23.5625 C 233.3125 23.308594 233.324219 23.050781 233.304688 22.792969 C 233.289062 22.542969 233.242188 22.296875 233.164062 22.054688 C 233.164062 22 233.125 21.9375 233.105469 21.878906 C 233.09375 21.851562 233.085938 21.820312 233.070312 21.792969 L 233.035156 21.707031 C 232.980469 21.59375 232.921875 21.488281 232.855469 21.382812 C 232.59375 20.96875 232.242188 20.652344 231.804688 20.433594 C 231.609375 20.335938 231.40625 20.265625 231.195312 20.214844 C 230.996094 20.171875 230.792969 20.148438 230.585938 20.152344 C 230.390625 20.15625 230.199219 20.183594 230.011719 20.230469 C 229.835938 20.273438 229.667969 20.339844 229.507812 20.421875 C 229.222656 20.578125 228.984375 20.789062 228.800781 21.054688 C 228.65625 21.269531 228.554688 21.503906 228.5 21.757812 C 228.460938 21.941406 228.449219 22.128906 228.46875 22.316406 C 228.476562 22.433594 228.5 22.550781 228.53125 22.660156 C 228.53125 22.699219 228.53125 22.726562 228.554688 22.746094 L 228.554688 22.777344 L 228.554688 22.746094 C 228.554688 22.726562 228.554688 22.699219 228.554688 22.65625 C 228.542969 22.542969 228.542969 22.429688 228.554688 22.316406 C 228.5625 22.136719 228.597656 21.960938 228.652344 21.789062 C 228.730469 21.566406 228.847656 21.367188 229 21.1875 C 229.179688 20.976562 229.394531 20.816406 229.648438 20.703125 C 229.789062 20.648438 229.9375 20.613281 230.089844 20.59375 C 230.25 20.574219 230.414062 20.574219 230.574219 20.59375 C 230.742188 20.609375 230.90625 20.644531 231.066406 20.699219 C 231.230469 20.757812 231.382812 20.832031 231.53125 20.925781 C 231.839844 21.125 232.078125 21.390625 232.242188 21.714844 C 232.28125 21.796875 232.316406 21.882812 232.347656 21.96875 L 232.371094 22.035156 C 232.371094 22.035156 232.371094 22.074219 232.371094 22.101562 C 232.382812 22.144531 232.394531 22.191406 232.402344 22.234375 C 232.441406 22.421875 232.457031 22.613281 232.453125 22.804688 C 232.453125 23 232.425781 23.1875 232.375 23.375 C 232.328125 23.5625 232.257812 23.742188 232.167969 23.914062 C 232.078125 24.085938 231.96875 24.242188 231.84375 24.390625 C 231.722656 24.535156 231.585938 24.664062 231.433594 24.773438 C 231.28125 24.886719 231.117188 24.976562 230.941406 25.046875 C 230.765625 25.117188 230.582031 25.167969 230.394531 25.199219 C 229.625 25.335938 228.90625 25.199219 228.238281 24.792969 C 227.941406 24.609375 227.683594 24.382812 227.460938 24.117188 C 227.355469 23.988281 227.261719 23.851562 227.179688 23.707031 C 227.101562 23.574219 227.03125 23.4375 226.972656 23.296875 C 226.957031 23.261719 226.945312 23.226562 226.933594 23.191406 L 226.910156 23.132812 L 226.910156 23.078125 L 226.875 22.964844 L 226.84375 22.839844 L 226.816406 22.71875 C 226.804688 22.675781 226.796875 22.636719 226.789062 22.59375 L 226.769531 22.464844 L 226.769531 22.074219 C 226.769531 22.050781 226.769531 22.03125 226.769531 22.007812 L 226.769531 21.933594 C 226.769531 21.886719 226.769531 21.84375 226.769531 21.796875 C 226.769531 21.613281 226.785156 21.433594 226.808594 21.253906 C 226.824219 21.066406 226.851562 20.886719 226.890625 20.703125 C 227 20.328125 227.164062 19.972656 227.378906 19.644531 C 227.488281 19.476562 227.609375 19.320312 227.738281 19.167969 C 228.148438 18.699219 228.640625 18.339844 229.214844 18.097656 L 229.355469 18.039062 L 229.5 17.988281 L 229.574219 17.988281 L 229.652344 17.964844 L 229.804688 17.917969 C 230.613281 17.695312 231.433594 17.664062 232.261719 17.824219 C 232.644531 17.898438 233.019531 18.011719 233.378906 18.164062 C 233.707031 18.296875 234.019531 18.460938 234.316406 18.65625 C 234.835938 19.011719 235.28125 19.441406 235.660156 19.945312 C 235.914062 20.289062 236.132812 20.65625 236.3125 21.046875 C 236.339844 21.117188 236.367188 21.179688 236.386719 21.230469 L 236.441406 21.371094 L 236.484375 21.480469 L 236.453125 21.367188 C 236.429688 21.328125 236.417969 21.28125 236.40625 21.222656 Z M 236.40625 21.222656 " fill-opacity="1" fill-rule="nonzero"/></svg>